<svg width="234" height="232" viewBox="0 0 234 232" fill="none" xmlns="http://www.w3.org/2000/svg">
<path d="M196.533 111.5C196.468 110.523 196.561 109.632 196.812 108.827C197.063 108.036 197.467 107.352 198.023 106.776C198.58 106.2 199.275 105.739 200.109 105.393C200.958 105.06 201.933 104.857 203.035 104.784C204.15 104.709 205.157 104.788 206.057 105.018C206.971 105.248 207.763 105.61 208.432 106.105C209.101 106.599 209.626 107.214 210.006 107.95C210.401 108.684 210.629 109.519 210.691 110.455C210.739 111.171 210.68 111.839 210.513 112.458C210.361 113.076 210.107 113.619 209.75 114.085C209.409 114.564 208.978 114.945 208.458 115.229C207.937 115.512 207.347 115.683 206.687 115.74L206.114 113.974C206.817 113.941 207.385 113.758 207.819 113.425C208.267 113.091 208.592 112.669 208.793 112.158C208.994 111.646 209.075 111.102 209.037 110.524C209.001 109.987 208.856 109.471 208.602 108.976C208.363 108.494 208.003 108.076 207.523 107.721C207.057 107.364 206.465 107.093 205.747 106.905C205.044 106.731 204.204 106.676 203.227 106.741C201.974 106.824 200.974 107.071 200.227 107.48C199.481 107.903 198.944 108.457 198.616 109.142C198.302 109.827 198.174 110.603 198.232 111.47C198.288 112.31 198.484 112.974 198.821 113.463C199.171 113.952 199.63 114.301 200.197 114.513C200.778 114.723 201.434 114.824 202.167 114.817L201.97 116.531C201.28 116.563 200.619 116.496 199.986 116.331C199.353 116.166 198.788 115.885 198.292 115.49C197.795 115.094 197.394 114.568 197.087 113.911C196.781 113.253 196.596 112.45 196.533 111.5ZM196.66 121.756C196.713 121.179 196.87 120.667 197.132 120.219C197.408 119.774 197.779 119.433 198.243 119.198C198.722 118.965 199.304 118.879 199.991 118.942C200.5 118.988 200.938 119.118 201.307 119.331C201.674 119.559 201.977 119.877 202.217 120.287C202.456 120.71 202.636 121.239 202.759 121.874C202.881 122.509 202.963 123.278 203.006 124.182C203.028 124.697 203.06 125.115 203.1 125.438C203.138 125.774 203.226 126.024 203.364 126.189C203.515 126.355 203.748 126.452 204.064 126.481C204.587 126.529 205.042 126.39 205.432 126.065C205.822 125.741 206.052 125.193 206.122 124.424C206.158 124.026 206.126 123.614 206.026 123.189C205.926 122.765 205.726 122.379 205.425 122.033C205.136 121.702 204.707 121.469 204.138 121.334L204.872 119.656C205.357 119.811 205.787 120.03 206.163 120.313C206.538 120.611 206.844 120.971 207.083 121.394C207.335 121.819 207.513 122.299 207.617 122.835C207.719 123.385 207.741 123.983 207.682 124.628C207.601 125.521 207.383 126.25 207.027 126.813C206.669 127.39 206.162 127.794 205.503 128.025C204.858 128.271 204.047 128.35 203.071 128.261L200.701 128.046C200.275 128.007 199.808 127.971 199.298 127.939C198.801 127.921 198.296 127.91 197.784 127.905C197.286 127.901 196.815 127.9 196.371 127.901L196.529 126.17C196.972 126.169 197.416 126.168 197.859 126.166C198.301 126.179 198.743 126.198 199.184 126.224L199.208 125.956C198.718 125.704 198.269 125.386 197.861 125.003C197.453 124.619 197.135 124.154 196.907 123.607C196.679 123.074 196.596 122.457 196.66 121.756ZM198.135 122.451C198.107 122.753 198.128 123.06 198.196 123.371C198.264 123.696 198.394 124.019 198.586 124.341C198.777 124.677 199.032 124.998 199.35 125.304C199.668 125.624 200.057 125.916 200.518 126.179L202.579 126.367L202.427 126.893C202.227 126.653 202.089 126.343 202.013 125.962C201.935 125.595 201.882 125.188 201.854 124.742C201.825 124.297 201.789 123.85 201.747 123.403C201.718 122.957 201.645 122.542 201.528 122.157C201.423 121.787 201.25 121.481 201.009 121.237C200.768 120.993 200.42 120.851 199.967 120.81C199.417 120.76 198.983 120.887 198.665 121.19C198.36 121.495 198.183 121.915 198.135 122.451ZM195.942 130.777L202.396 132.351L206.337 133.313L205.934 134.961L202.681 133.976L202.598 134.318C203.37 134.705 203.979 135.116 204.427 135.552C204.871 136.001 205.162 136.498 205.299 137.043C205.436 137.587 205.426 138.181 205.269 138.825C204.987 139.977 204.359 140.747 203.385 141.134C202.42 141.538 201.12 141.54 199.485 141.141L193.755 139.743L194.206 137.894L199.775 139.252C200.955 139.54 201.872 139.565 202.526 139.327C203.177 139.103 203.59 138.635 203.763 137.925C203.92 137.281 203.853 136.683 203.562 136.129C203.268 135.589 202.823 135.111 202.229 134.696C201.634 134.281 200.958 133.967 200.201 133.754L195.496 132.606L195.942 130.777ZM190.878 146.866C191.232 145.997 191.674 145.313 192.205 144.814C192.73 144.328 193.308 143.99 193.936 143.799C194.56 143.621 195.215 143.567 195.901 143.638C196.582 143.722 197.255 143.899 197.919 144.169C198.648 144.466 199.292 144.84 199.853 145.292C200.414 145.744 200.859 146.26 201.189 146.841C201.526 147.44 201.711 148.082 201.745 148.766C201.787 149.468 201.649 150.209 201.332 150.989C201.025 151.743 200.62 152.352 200.118 152.818C199.628 153.289 199.074 153.607 198.456 153.772C197.832 153.951 197.174 153.958 196.48 153.795L196.699 151.94C197.067 152.06 197.457 152.092 197.867 152.036C198.272 151.992 198.65 151.833 199 151.558C199.363 151.289 199.651 150.893 199.864 150.369C200.067 149.87 200.145 149.403 200.099 148.967C200.048 148.544 199.9 148.141 199.653 147.758C199.402 147.387 199.072 147.045 198.664 146.73C198.251 146.427 197.776 146.167 197.24 145.948C196.499 145.647 195.812 145.486 195.179 145.467C194.541 145.46 193.978 145.618 193.489 145.941C193 146.263 192.613 146.776 192.327 147.478C192.113 148.002 192.021 148.486 192.049 148.929C192.089 149.378 192.232 149.778 192.475 150.131C192.732 150.489 193.077 150.793 193.511 151.044L192.492 152.506C191.979 152.193 191.561 151.829 191.238 151.414C190.915 151 190.689 150.55 190.558 150.065C190.441 149.585 190.411 149.074 190.468 148.531C190.507 147.996 190.644 147.441 190.878 146.866ZM185.86 157.033C186.285 156.306 186.768 155.726 187.31 155.292C187.857 154.876 188.45 154.6 189.09 154.462C189.73 154.325 190.391 154.328 191.074 154.472C191.757 154.616 192.456 154.897 193.17 155.315C193.897 155.74 194.508 156.225 195.004 156.771C195.5 157.317 195.866 157.907 196.103 158.54C196.339 159.174 196.42 159.829 196.345 160.504C196.281 161.186 196.047 161.873 195.643 162.563C195.288 163.171 194.863 163.665 194.368 164.047C193.873 164.429 193.31 164.667 192.679 164.761C192.054 164.875 191.367 164.833 190.619 164.635C189.884 164.445 189.098 164.081 188.261 163.544L192.45 156.26L193.557 156.908L189.943 163.209L189.517 162.216C190.232 162.715 190.894 163.006 191.5 163.089C192.107 163.172 192.647 163.096 193.12 162.861C193.586 162.638 193.968 162.271 194.268 161.759C194.588 161.211 194.728 160.645 194.686 160.061C194.644 159.477 194.421 158.915 194.017 158.376C193.607 157.848 193.02 157.361 192.258 156.915C191.163 156.274 190.18 156.027 189.311 156.174C188.454 156.328 187.743 156.887 187.179 157.852C186.963 158.221 186.817 158.567 186.74 158.89C186.668 159.231 186.654 159.543 186.697 159.824C186.745 160.124 186.842 160.396 186.987 160.64C187.124 160.897 187.297 161.134 187.506 161.352L186.33 162.582C185.964 162.224 185.675 161.831 185.462 161.403C185.254 160.993 185.128 160.552 185.085 160.08C185.035 159.619 185.07 159.136 185.19 158.63C185.309 158.125 185.533 157.592 185.86 157.033ZM182.249 163.474L193.917 172.059L192.801 173.576L181.133 164.991L182.249 163.474ZM175.624 170.943C176.194 170.324 176.79 169.86 177.412 169.552C178.035 169.263 178.673 169.119 179.327 169.122C179.982 169.124 180.627 169.268 181.264 169.555C181.9 169.841 182.523 170.265 183.132 170.825C183.751 171.396 184.244 172 184.612 172.639C184.98 173.278 185.212 173.933 185.308 174.602C185.404 175.272 185.343 175.929 185.125 176.572C184.918 177.225 184.543 177.846 184.001 178.435C183.524 178.952 183.003 179.345 182.438 179.612C181.873 179.879 181.272 179.992 180.636 179.949C180 179.927 179.339 179.739 178.65 179.387C177.972 179.043 177.282 178.52 176.58 177.817L182.226 171.595L183.17 172.464L178.294 177.849L178.09 176.788C178.682 177.428 179.266 177.853 179.841 178.064C180.416 178.274 180.959 178.315 181.472 178.187C181.975 178.069 182.427 177.791 182.829 177.355C183.259 176.888 183.516 176.365 183.599 175.786C183.683 175.206 183.585 174.61 183.306 173.996C183.018 173.393 182.549 172.792 181.899 172.194C180.966 171.334 180.059 170.883 179.178 170.841C178.308 170.809 177.494 171.203 176.737 172.025C176.447 172.34 176.231 172.647 176.087 172.945C175.943 173.264 175.863 173.565 175.845 173.849C175.829 174.152 175.865 174.439 175.954 174.708C176.034 174.988 176.152 175.257 176.309 175.514L174.898 176.465C174.617 176.037 174.418 175.591 174.302 175.128C174.186 174.683 174.157 174.225 174.216 173.754C174.265 173.293 174.402 172.829 174.627 172.361C174.852 171.893 175.184 171.42 175.624 170.943ZM158.518 181.371L160.164 183.756C160.368 184.051 160.562 184.369 160.747 184.711C160.941 185.064 161.128 185.42 161.31 185.781C161.492 186.142 161.662 186.485 161.82 186.812L162.093 186.624C161.904 186.083 161.79 185.517 161.75 184.924C161.706 184.351 161.793 183.797 162.01 183.261C162.235 182.737 162.66 182.26 163.284 181.829C164.045 181.304 164.824 181.06 165.62 181.097C166.425 181.145 167.202 181.421 167.953 181.926C168.703 182.431 169.38 183.12 169.984 183.994C170.595 184.88 171.009 185.759 171.226 186.632C171.439 187.524 171.414 188.363 171.151 189.148C170.888 189.933 170.359 190.599 169.565 191.148C168.985 191.547 168.428 191.773 167.893 191.823C167.359 191.874 166.843 191.794 166.345 191.584C165.848 191.374 165.379 191.07 164.936 190.671L164.663 190.859L166.317 193.037L164.92 194.001L161.911 189.64L156.951 182.453L158.518 181.371ZM163.787 183.468C163.435 183.711 163.168 184.004 162.986 184.348C162.804 184.691 162.689 185.047 162.642 185.415C162.602 185.795 162.612 186.173 162.671 186.551C162.731 186.929 162.825 187.284 162.952 187.614C163.08 187.945 163.222 188.224 163.379 188.451L163.52 188.656C163.771 189.019 164.084 189.339 164.46 189.617C164.843 189.905 165.254 190.124 165.693 190.274C166.128 190.443 166.573 190.505 167.028 190.459C167.49 190.425 167.926 190.267 168.335 189.985C168.812 189.656 169.132 189.234 169.296 188.718C169.456 188.222 169.459 187.667 169.304 187.053C169.156 186.451 168.855 185.821 168.401 185.162C167.97 184.538 167.497 184.034 166.982 183.652C166.455 183.278 165.92 183.061 165.375 183.001C164.828 182.96 164.298 183.115 163.787 183.468ZM152.892 188.155C153.961 187.639 154.948 187.622 155.855 188.104C156.761 188.586 157.571 189.566 158.284 191.045L160.901 196.469L159.186 197.296L156.642 192.021C156.138 190.977 155.602 190.279 155.033 189.925C154.464 189.572 153.832 189.563 153.136 189.898C152.751 190.084 152.454 190.342 152.246 190.673C152.025 191.009 151.88 191.408 151.812 191.87C151.744 192.332 151.749 192.835 151.828 193.379C151.913 193.935 152.065 194.505 152.285 195.088L154.452 199.58L152.756 200.398L150.049 194.788L148.107 190.762L149.617 190.034L150.96 193.2L151.24 193.065C151.03 192.217 150.954 191.472 151.012 190.831C151.064 190.209 151.251 189.674 151.572 189.228C151.893 188.783 152.333 188.425 152.892 188.155ZM142.66 192.509C143.213 192.337 143.746 192.286 144.26 192.357C144.778 192.442 145.234 192.653 145.629 192.993C146.028 193.345 146.33 193.851 146.535 194.509C146.687 194.997 146.735 195.451 146.679 195.874C146.609 196.3 146.431 196.702 146.144 197.081C145.845 197.463 145.425 197.832 144.886 198.188C144.346 198.544 143.667 198.915 142.848 199.301C142.381 199.518 142.007 199.707 141.724 199.868C141.429 200.032 141.231 200.209 141.131 200.399C141.036 200.603 141.035 200.856 141.13 201.159C141.286 201.659 141.588 202.027 142.038 202.263C142.487 202.499 143.08 202.501 143.818 202.271C144.2 202.152 144.568 201.965 144.922 201.71C145.276 201.456 145.555 201.123 145.759 200.712C145.955 200.319 146.006 199.833 145.912 199.256L147.744 199.291C147.787 199.798 147.749 200.28 147.631 200.736C147.5 201.196 147.284 201.617 146.984 201.999C146.689 202.395 146.313 202.743 145.858 203.044C145.389 203.349 144.846 203.598 144.227 203.791C143.37 204.058 142.614 204.135 141.957 204.022C141.288 203.913 140.72 203.599 140.254 203.079C139.78 202.577 139.397 201.858 139.105 200.923L138.397 198.651C138.269 198.242 138.123 197.797 137.958 197.314C137.784 196.848 137.601 196.377 137.41 195.902C137.222 195.44 137.043 195.005 136.872 194.596L138.532 194.078C138.703 194.487 138.874 194.896 139.045 195.306C139.202 195.719 139.354 196.134 139.498 196.552L139.755 196.471C139.801 195.923 139.922 195.386 140.12 194.862C140.318 194.338 140.626 193.866 141.044 193.447C141.45 193.031 141.988 192.719 142.66 192.509ZM142.582 194.138C142.293 194.228 142.017 194.364 141.756 194.547C141.482 194.734 141.233 194.977 141.009 195.279C140.772 195.584 140.573 195.942 140.412 196.353C140.238 196.769 140.117 197.24 140.05 197.767L140.666 199.742L140.122 199.804C140.267 199.527 140.501 199.281 140.824 199.065C141.133 198.853 141.488 198.648 141.889 198.451C142.29 198.253 142.689 198.049 143.086 197.839C143.487 197.642 143.843 197.415 144.153 197.159C144.454 196.921 144.672 196.644 144.804 196.328C144.937 196.012 144.936 195.637 144.8 195.202C144.636 194.675 144.352 194.323 143.95 194.145C143.552 193.98 143.096 193.977 142.582 194.138ZM134.033 195.308L135.067 201.87L135.699 205.876L134.023 206.141L133.678 202.759L133.331 202.814C133.271 203.675 133.126 204.397 132.897 204.977C132.654 205.561 132.307 206.02 131.857 206.356C131.407 206.693 130.855 206.912 130.201 207.016C129.029 207.2 128.077 206.918 127.344 206.167C126.6 205.433 126.096 204.234 125.834 202.571L124.916 196.745L126.796 196.449L127.689 202.111C127.878 203.311 128.209 204.166 128.681 204.679C129.139 205.193 129.729 205.393 130.451 205.279C131.105 205.176 131.632 204.884 132.031 204.402C132.416 203.922 132.686 203.328 132.839 202.619C132.993 201.911 133.022 201.166 132.927 200.385L132.173 195.601L134.033 195.308ZM118.073 196.796C118.983 196.795 119.763 197.035 120.412 197.516C121.062 197.998 121.56 198.659 121.906 199.5C122.239 200.341 122.406 201.306 122.409 202.396C122.411 203.486 122.247 204.452 121.918 205.294C121.588 206.137 121.106 206.8 120.473 207.284C119.839 207.768 119.06 208.011 118.136 208.013C117.377 208.014 116.756 207.857 116.272 207.54C115.789 207.224 115.402 206.811 115.111 206.301C114.807 205.805 114.585 205.26 114.446 204.667L114.073 204.668C114.143 205.068 114.206 205.482 114.262 205.909C114.318 206.351 114.367 206.778 114.409 207.192C114.451 207.62 114.473 207.999 114.473 208.33L114.48 211.559L112.576 211.562L112.558 202.353L112.548 197.076L114.245 197.073L114.147 199.97L114.478 199.97C114.642 199.348 114.876 198.796 115.178 198.313C115.481 197.843 115.867 197.47 116.335 197.193C116.804 196.93 117.383 196.798 118.073 196.796ZM117.641 198.453C117.145 198.454 116.696 198.572 116.297 198.807C115.897 199.043 115.56 199.347 115.285 199.72C115.009 200.107 114.803 200.521 114.666 200.963C114.515 201.404 114.44 201.832 114.441 202.246L114.441 202.494C114.442 202.784 114.484 203.094 114.567 203.425C114.651 203.77 114.776 204.115 114.942 204.459C115.094 204.804 115.302 205.121 115.565 205.41C115.813 205.713 116.111 205.947 116.456 206.112C116.801 206.291 117.187 206.38 117.615 206.379C118.236 206.378 118.76 206.197 119.187 205.838C119.6 205.492 119.917 205.015 120.136 204.408C120.342 203.801 120.444 203.117 120.443 202.359C120.441 201.572 120.329 200.883 120.107 200.29C119.886 199.711 119.567 199.256 119.153 198.926C118.725 198.609 118.221 198.452 117.641 198.453ZM104.828 195.944C105.837 196.1 106.696 196.456 107.406 197.012C108.1 197.58 108.6 198.314 108.908 199.213C109.202 200.11 109.257 201.152 109.074 202.338C108.884 203.565 108.502 204.546 107.928 205.281C107.338 206.027 106.629 206.546 105.802 206.837C104.976 207.128 104.092 207.2 103.151 207.055C102.169 206.903 101.331 206.55 100.635 205.996C99.9228 205.453 99.4063 204.731 99.085 203.829C98.7616 202.942 98.6937 201.891 98.8814 200.678C99.069 199.464 99.4511 198.483 100.028 197.735C100.59 196.984 101.293 196.458 102.136 196.155C102.962 195.864 103.86 195.794 104.828 195.944ZM104.509 197.465C103.854 197.364 103.271 197.434 102.759 197.676C102.231 197.929 101.799 198.33 101.463 198.878C101.113 199.425 100.876 200.1 100.752 200.904C100.623 201.736 100.649 202.473 100.829 203.115C100.993 203.769 101.295 204.297 101.735 204.7C102.174 205.117 102.74 205.379 103.436 205.487C104.063 205.584 104.638 205.519 105.162 205.293C105.685 205.067 106.122 204.68 106.472 204.134C106.819 203.602 107.057 202.92 107.186 202.088C107.384 200.806 107.247 199.752 106.775 198.925C106.287 198.11 105.531 197.623 104.509 197.465ZM89.1029 192.289L88.8085 203.629L86.86 202.873L87.4267 193.348L87.1566 193.243L81.1687 200.664L79.2587 199.923L86.672 191.346L89.1029 192.289ZM77.6115 186.654C78.4999 187.158 79.1774 187.795 79.6441 188.567C80.092 189.344 80.3006 190.207 80.27 191.157C80.2274 192.1 79.9104 193.094 79.3188 194.138C78.7069 195.218 78.0023 196.001 77.205 196.484C76.3889 196.974 75.5428 197.208 74.6665 197.187C73.7903 197.167 72.938 196.922 72.1097 196.453C71.2454 195.963 70.5859 195.336 70.1312 194.571C69.6577 193.811 69.4302 192.953 69.4488 191.996C69.4606 191.052 69.7691 190.045 70.3742 188.977C70.9793 187.908 71.6839 187.126 72.488 186.63C73.2801 186.128 74.1236 185.884 75.0187 185.899C75.8949 185.92 76.7592 186.172 77.6115 186.654ZM76.7746 187.964C76.1984 187.638 75.628 187.497 75.0635 187.542C74.4801 187.592 73.9342 187.814 73.4258 188.208C72.9054 188.595 72.4446 189.143 72.0434 189.851C71.6287 190.583 71.3918 191.281 71.3327 191.946C71.2548 192.615 71.3504 193.216 71.6194 193.749C71.8816 194.294 72.3188 194.74 72.931 195.086C73.4832 195.399 74.0442 195.543 74.614 195.516C75.1837 195.49 75.7288 195.284 76.2492 194.897C76.7629 194.522 77.2271 193.968 77.6418 193.236C78.2809 192.107 78.526 191.073 78.3769 190.132C78.209 189.197 77.6749 188.474 76.7746 187.964ZM67.2782 179.845C68.0183 180.422 68.5564 181.033 68.8924 181.679C69.2175 182.317 69.3865 182.965 69.3994 183.622C69.4014 184.27 69.2752 184.915 69.0207 185.556C68.7553 186.189 68.4022 186.788 67.9614 187.354C67.4782 187.975 66.9431 188.494 66.356 188.911C65.7689 189.328 65.151 189.616 64.5023 189.775C63.8343 189.937 63.1664 189.942 62.4985 189.789C61.8113 189.638 61.1357 189.304 60.4718 188.787C59.8295 188.287 59.3525 187.732 59.0407 187.122C58.7205 186.523 58.5647 185.903 58.5736 185.263C58.5716 184.615 58.7432 183.979 59.0884 183.356L60.8141 184.07C60.5985 184.392 60.4621 184.758 60.405 185.168C60.337 185.57 60.3876 185.976 60.5567 186.388C60.7174 186.81 61.0209 187.195 61.4672 187.543C61.8917 187.873 62.3199 188.076 62.7518 188.15C63.1729 188.215 63.6012 188.182 64.0369 188.049C64.4617 187.908 64.8811 187.684 65.2951 187.376C65.6983 187.061 66.0779 186.675 66.4339 186.217C66.9255 185.586 67.2665 184.969 67.4569 184.365C67.6363 183.753 67.6373 183.168 67.4598 182.61C67.2823 182.052 66.8942 181.54 66.2955 181.073C65.8492 180.726 65.4089 180.505 64.9746 180.412C64.5317 180.329 64.1076 180.358 63.7022 180.497C63.2883 180.646 62.9015 180.896 62.5419 181.245L61.412 179.867C61.8527 179.458 62.3163 179.155 62.8029 178.957C63.2894 178.759 63.7838 178.663 64.2859 178.669C64.7796 178.686 65.2799 178.796 65.7868 178.999C66.2912 179.182 66.7884 179.464 67.2782 179.845ZM58.8644 172.257C59.4476 172.863 59.8744 173.486 60.1447 174.126C60.3956 174.765 60.4999 175.411 60.4578 176.064C60.4156 176.717 60.2323 177.352 59.9079 177.971C59.5834 178.589 59.1229 179.184 58.5261 179.758C57.9194 180.341 57.2859 180.797 56.6257 181.126C55.9655 181.454 55.2982 181.646 54.6238 181.701C53.9495 181.756 53.2977 181.655 52.6686 181.399C52.0295 181.152 51.4326 180.74 50.8781 180.163C50.3905 179.656 50.0304 179.112 49.7979 178.532C49.5655 177.952 49.4896 177.345 49.5704 176.713C49.6317 176.08 49.8591 175.43 50.2528 174.765C50.6365 174.109 51.2008 173.452 51.9456 172.793L57.8131 178.807L56.8881 179.697L51.8094 174.503L52.8806 174.363C52.2062 174.916 51.7464 175.473 51.5011 176.034C51.2559 176.595 51.1818 177.135 51.2789 177.654C51.3664 178.163 51.6157 178.631 52.0269 179.059C52.4667 179.517 52.9732 179.805 53.5466 179.923C54.1199 180.042 54.7212 179.981 55.3504 179.739C55.9701 179.488 56.5982 179.057 57.2348 178.445C58.1498 177.565 58.655 176.687 58.7503 175.811C58.8357 174.944 58.4912 174.108 57.7168 173.302C57.4204 172.994 57.1274 172.759 56.8379 172.597C56.5288 172.435 56.2332 172.336 55.9509 172.301C55.6491 172.266 55.3609 172.285 55.0863 172.358C54.8021 172.42 54.5269 172.522 54.2606 172.663L53.3968 171.197C53.8409 170.943 54.298 170.771 54.7681 170.683C55.2187 170.594 55.6773 170.593 56.1439 170.681C56.601 170.758 57.0563 170.923 57.5099 171.176C57.9635 171.429 58.415 171.789 58.8644 172.257ZM52.3264 183.163L51.1329 184.31L47.5184 183.537L46.8878 179.894L48.0813 178.747L48.6821 182.418L52.3264 183.163ZM49.477 154.565L46.9971 156.062C46.69 156.248 46.3605 156.423 46.0084 156.587C45.6445 156.758 45.2771 156.924 44.9061 157.084C44.5351 157.243 44.1818 157.392 43.8462 157.53L44.0174 157.814C44.5683 157.658 45.1406 157.579 45.7345 157.574C46.3094 157.566 46.8575 157.686 47.3788 157.935C47.8882 158.192 48.3391 158.645 48.7314 159.294C49.2093 160.085 49.4056 160.877 49.3204 161.67C49.2234 162.47 48.9003 163.23 48.3511 163.948C47.8019 164.667 47.0727 165.3 46.1633 165.85C45.2422 166.406 44.3394 166.766 43.455 166.929C42.5516 167.088 41.7162 167.013 40.9487 166.703C40.1812 166.392 39.5478 165.824 39.0485 164.997C38.6847 164.395 38.4938 163.826 38.4756 163.288C38.4575 162.751 38.5684 162.241 38.8083 161.758C39.0482 161.274 39.3805 160.824 39.8052 160.406L39.634 160.123L37.3599 161.641L36.4826 160.189L41.0174 157.45L48.4927 152.935L49.477 154.565ZM47.0645 159.696C46.8434 159.33 46.5669 159.046 46.2351 158.844C45.9032 158.641 45.555 158.505 45.1905 158.435C44.8141 158.372 44.4355 158.359 44.0546 158.396C43.6738 158.432 43.3144 158.504 42.9763 158.612C42.6383 158.719 42.3512 158.844 42.115 158.987L41.9024 159.115C41.5245 159.344 41.1859 159.637 40.8864 159.995C40.5752 160.36 40.3315 160.757 40.1553 161.186C39.9601 161.61 39.8715 162.05 39.8894 162.507C39.8955 162.971 40.0269 163.415 40.2837 163.84C40.5833 164.336 40.9854 164.682 41.4899 164.877C41.9755 165.067 42.5293 165.103 43.1512 164.985C43.7613 164.875 44.4088 164.613 45.0938 164.199C45.7433 163.807 46.2744 163.365 46.687 162.874C47.0925 162.371 47.3417 161.85 47.4348 161.31C47.5089 160.766 47.3855 160.228 47.0645 159.696ZM43.0484 148.537C43.4978 149.635 43.4545 150.622 42.9184 151.497C42.3823 152.372 41.3545 153.121 39.8351 153.743L34.2618 156.024L33.5406 154.262L38.9607 152.044C40.0332 151.605 40.7632 151.112 41.1508 150.566C41.5384 150.02 41.5859 149.389 41.2932 148.674C41.1312 148.278 40.8917 147.966 40.5748 147.738C40.2526 147.497 39.8631 147.329 39.4063 147.233C38.9495 147.136 38.4472 147.111 37.8993 147.156C37.3386 147.207 36.7605 147.324 36.165 147.508L31.5494 149.398L30.836 147.655L36.6008 145.295L40.7376 143.602L41.3726 145.153L38.1307 146.301L38.2483 146.589C39.1078 146.431 39.8557 146.4 40.4918 146.498C41.11 146.587 41.6318 146.806 42.0573 147.154C42.4829 147.501 42.8132 147.962 43.0484 148.537ZM39.5265 140.269L29.2359 143.197L28.7205 141.386L39.0111 138.458L39.5265 140.269ZM27.184 142.791C27.3048 143.216 27.3092 143.559 27.1971 143.82C27.085 144.082 26.8564 144.261 26.5114 144.359C26.1664 144.458 25.8774 144.425 25.6445 144.262C25.4116 144.099 25.2366 143.811 25.1196 143.4C24.9988 142.975 24.9944 142.632 25.1065 142.371C25.2186 142.11 25.4472 141.93 25.7922 141.832C26.1239 141.737 26.4129 141.77 26.6591 141.929C26.892 142.092 27.067 142.38 27.184 142.791ZM37.7221 130.999C37.8522 131.732 37.8864 132.399 37.8246 132.998C37.7763 133.595 37.6433 134.109 37.4255 134.54C37.1941 134.973 36.8927 135.328 36.5213 135.604C36.15 135.88 35.721 136.068 35.2343 136.169L34.5485 134.672C35.0016 134.62 35.3763 134.441 35.6725 134.136C35.9528 133.82 36.1402 133.416 36.2349 132.923C36.3272 132.416 36.3143 131.83 36.1962 131.164C36.054 130.363 35.8086 129.769 35.4598 129.382C35.1086 128.982 34.6953 128.824 34.2198 128.908C33.8395 128.976 33.5691 129.15 33.4087 129.431C33.2347 129.714 33.1251 130.083 33.08 130.54C33.0188 130.985 32.9857 131.509 32.9807 132.113C32.9587 132.621 32.9232 133.132 32.8741 133.645C32.825 134.158 32.7279 134.638 32.5828 135.084C32.4218 135.519 32.1796 135.891 31.8561 136.2C31.5327 136.51 31.0994 136.713 30.556 136.809C29.9175 136.923 29.3372 136.85 28.8151 136.593C28.293 136.335 27.8475 135.917 27.4786 135.337C27.1097 134.758 26.8481 134.034 26.6939 133.165C26.5397 132.295 26.5442 131.531 26.7075 130.871C26.8571 130.214 27.1384 129.667 27.5512 129.23C27.964 128.792 28.486 128.496 29.1172 128.342L29.8103 129.88C29.3644 129.973 29.0057 130.163 28.7343 130.449C28.4604 130.722 28.2849 131.075 28.2077 131.509C28.117 131.946 28.1198 132.435 28.2162 132.979C28.3439 133.699 28.5809 134.245 28.9273 134.618C29.2737 134.991 29.6846 135.135 30.16 135.051C30.5132 134.988 30.7768 134.816 30.9508 134.532C31.1224 134.236 31.2307 133.859 31.2759 133.403C31.321 132.947 31.3578 132.443 31.3861 131.891C31.3984 131.328 31.4291 130.791 31.4782 130.277C31.5249 129.751 31.6219 129.271 31.7694 128.839C31.9169 128.406 32.1535 128.042 32.4793 127.746C32.7916 127.452 33.2262 127.256 33.7831 127.157C34.4759 127.035 35.0926 127.114 35.6331 127.397C36.16 127.682 36.6047 128.135 36.9673 128.757C37.3139 129.368 37.5655 130.116 37.7221 130.999ZM36.4902 119.437C36.5191 120.278 36.4206 121.027 36.1946 121.684C35.9544 122.327 35.6006 122.878 35.1332 123.335C34.6657 123.793 34.1049 124.144 33.4506 124.387C32.7964 124.63 32.0556 124.766 31.2283 124.795C30.3872 124.824 29.6113 124.74 28.9005 124.543C28.1898 124.347 27.5651 124.044 27.0264 123.635C26.4878 123.225 26.07 122.715 25.7729 122.104C25.462 121.493 25.2929 120.788 25.2654 119.988C25.2413 119.285 25.3365 118.64 25.551 118.053C25.7655 117.466 26.1141 116.964 26.5967 116.547C27.0651 116.117 27.668 115.785 28.4055 115.553C29.1292 115.321 29.9881 115.209 30.9822 115.216L31.3326 123.611L30.0503 123.655L29.739 116.398L30.6297 117.009C29.7586 116.97 29.0445 117.077 28.4872 117.331C27.93 117.585 27.5141 117.937 27.2397 118.388C26.9649 118.826 26.8376 119.341 26.858 119.934C26.8797 120.568 27.0644 121.121 27.4119 121.592C27.7593 122.063 28.2478 122.419 28.8773 122.66C29.5063 122.887 30.262 122.985 31.1444 122.955C32.4129 122.911 33.3753 122.595 34.0315 122.007C34.6739 121.419 34.976 120.566 34.9376 119.449C34.9229 119.022 34.8619 118.651 34.7545 118.337C34.6328 118.01 34.4786 117.74 34.2918 117.525C34.0907 117.297 33.8637 117.119 33.6108 116.989C33.3574 116.846 33.0845 116.738 32.7921 116.665L33.1282 114.997C33.6289 115.104 34.0836 115.282 34.4925 115.53C34.887 115.765 35.2288 116.071 35.5179 116.448C35.8064 116.81 36.035 117.237 36.2038 117.729C36.3725 118.22 36.468 118.789 36.4902 119.437ZM36.1255 112.217L30.3562 111.678L25.4728 111.223L25.6305 109.533L29.324 110.044L29.3567 109.694C28.5577 109.494 27.8751 109.237 27.3088 108.921C26.7425 108.604 26.3144 108.218 26.0244 107.761C25.7358 107.291 25.6216 106.733 25.6818 106.088C25.6946 105.95 25.7231 105.793 25.7673 105.617C25.7977 105.44 25.865 105.239 25.9692 105.013L27.917 105.299C27.8154 105.497 27.7412 105.698 27.6945 105.901C27.6341 106.103 27.5949 106.301 27.5769 106.493C27.5269 107.029 27.6551 107.512 27.9613 107.942C28.2688 108.359 28.7057 108.725 29.272 109.041C29.8246 109.356 30.4572 109.63 31.1699 109.863L36.3005 110.342L36.1255 112.217ZM40.7537 92.5004L34.689 91.6031L34.9438 97.7402L34.6169 97.8074L32.3488 92.0997L27.1829 95.3728L26.9591 95.1253L30.7557 90.3149L25.335 87.4509L25.4381 87.1362L31.5028 88.0336L31.2873 81.9093L31.6142 81.8422L33.843 87.537L39.0482 84.2768L39.272 84.5243L35.4361 89.3218L40.8567 92.1858L40.7537 92.5004ZM46.6772 76.7757C45.8307 76.256 45.0016 75.6419 44.1901 74.9333C43.3668 74.2175 42.6035 73.4171 41.9003 72.5321C41.197 71.6472 40.589 70.6993 40.0763 69.6885C39.5709 68.6659 39.2149 67.5975 39.0085 66.4833L38.8674 66.3967L35.2178 72.461L33.8245 71.6057L38.4581 64.0572L40.0101 65.0099C40.2227 65.9822 40.5514 66.9367 40.9962 67.8735C41.4365 68.7913 41.9848 69.6782 42.641 70.5343C43.2855 71.3832 44.0356 72.1917 44.8915 72.9599C45.7429 73.7091 46.6918 74.4049 47.7382 75.0473L46.6772 76.7757ZM57.7798 62.2449C57.1505 62.903 56.4373 63.2994 55.6401 63.4343C54.843 63.5692 54.0211 63.4704 53.1745 63.138C52.3375 62.7956 51.5251 62.2478 50.7374 61.4945C49.9498 60.7412 49.3662 59.9541 48.9869 59.1331C48.6075 58.3122 48.4627 57.5055 48.5523 56.7131C48.642 55.9207 49.0063 55.1905 49.6452 54.5225C50.1696 53.9741 50.7134 53.6351 51.2764 53.5054C51.8395 53.3758 52.4056 53.3826 52.9748 53.5261C53.5435 53.65 54.0899 53.8671 54.614 54.1774L54.8714 53.9082C54.5346 53.6816 54.1926 53.4404 53.8454 53.1846C53.4881 52.9194 53.1457 52.6587 52.818 52.4025C52.4803 52.1369 52.1918 51.8896 51.9525 51.6607L49.6194 49.4294L50.9353 48.0535L57.5906 54.4184L61.4044 58.0657L60.2315 59.2921L58.2092 57.2149L57.9804 57.4542C58.3146 58.0029 58.5513 58.5538 58.6905 59.1069C58.8197 59.6505 58.8219 60.1871 58.6971 60.7168C58.5624 61.237 58.2566 61.7464 57.7798 62.2449ZM56.8837 60.7866C57.227 60.4276 57.4522 60.0225 57.5592 59.5713C57.6662 59.12 57.6805 58.666 57.602 58.2091C57.5135 57.7427 57.3574 57.3071 57.1337 56.9022C56.9196 56.4874 56.6629 56.137 56.3638 55.8509L56.1843 55.6793C55.975 55.479 55.722 55.2944 55.4255 55.1254C55.119 54.9468 54.7839 54.7982 54.4203 54.6794C54.0661 54.5507 53.6937 54.4809 53.3032 54.4701C52.9122 54.4398 52.5377 54.4921 52.1797 54.6269C51.8116 54.7522 51.4798 54.9694 51.1842 55.2785C50.7552 55.7272 50.5224 56.23 50.4861 56.7871C50.4493 57.3246 50.5739 57.8829 50.8601 58.4619C51.1557 59.0311 51.5778 59.5779 52.1261 60.1023C52.6945 60.6458 53.2693 61.0428 53.8506 61.2933C54.4219 61.5343 54.9703 61.6196 55.4956 61.5494C56.0205 61.4596 56.4832 61.2053 56.8837 60.7866ZM63.9502 55.6118L57.1074 47.3871L58.5551 46.1826L65.3979 54.4073L63.9502 55.6118ZM56.648 45.3465C56.3086 45.6288 55.9967 45.7717 55.7123 45.775C55.4279 45.7783 55.171 45.6421 54.9416 45.3663C54.7122 45.0906 54.625 44.8132 54.68 44.5341C54.735 44.2551 54.9268 43.9788 55.2556 43.7052C55.595 43.4229 55.9069 43.28 56.1913 43.2767C56.4757 43.2734 56.7326 43.4097 56.962 43.6854C57.1826 43.9505 57.2698 44.2279 57.2237 44.5176C57.1687 44.7967 56.9768 45.0729 56.648 45.3465ZM70.4231 51.0935C69.9406 51.4143 69.4429 51.6127 68.9301 51.6886C68.4096 51.753 67.9123 51.6778 67.4381 51.4629C66.9562 51.2366 66.5243 50.8362 66.1424 50.2618C65.8598 49.8367 65.6862 49.4136 65.6217 48.9927C65.5686 48.564 65.6266 48.1279 65.7955 47.6842C65.9759 47.233 66.2749 46.7608 66.6926 46.2677C67.1103 45.7746 67.6581 45.2281 68.3361 44.6282C68.723 44.2881 69.0295 44.0015 69.2555 43.7683C69.4931 43.5276 69.633 43.302 69.6753 43.0916C69.7101 42.8697 69.6396 42.6266 69.4639 42.3624C69.1736 41.9258 68.7798 41.6575 68.2825 41.5574C67.7852 41.4573 67.2149 41.6211 66.5715 42.0489C66.2383 42.2704 65.9376 42.5532 65.6693 42.8973C65.4011 43.2413 65.2265 43.639 65.1456 44.0905C65.0685 44.5227 65.1559 45.0031 65.4078 45.5314L63.6394 46.0114C63.4563 45.5367 63.3574 45.064 63.3427 44.5933C63.3395 44.115 63.428 43.6502 63.6084 43.1989C63.7812 42.7361 64.0439 42.2964 64.3964 41.8798C64.7604 41.4555 65.2124 41.0638 65.7524 40.7048C66.4991 40.2083 67.2036 39.9222 67.8656 39.8465C68.5392 39.7631 69.1723 39.9055 69.7649 40.2736C70.3614 40.6225 70.9308 41.2048 71.4732 42.0205L72.7908 44.0023C73.0276 44.3584 73.2931 44.7452 73.5872 45.1627C73.8852 45.561 74.1927 45.9612 74.5098 46.3634C74.8193 46.754 75.1135 47.1217 75.3924 47.4665L73.9448 48.4289C73.6659 48.0842 73.387 47.7395 73.1081 47.3948C72.8407 47.0424 72.579 46.6862 72.3231 46.3262L72.099 46.4752C72.2093 47.0149 72.2431 47.564 72.2003 48.1226C72.1575 48.6812 71.9943 49.2205 71.7105 49.7406C71.4382 50.253 71.0091 50.7039 70.4231 51.0935ZM70.0405 49.5089C70.2933 49.3409 70.5193 49.1326 70.7186 48.8841C70.9293 48.628 71.1 48.324 71.2305 47.9722C71.3725 47.6127 71.4629 47.2129 71.5018 46.7729C71.552 46.3253 71.5354 45.8393 71.4519 45.315L70.3061 43.5917L70.8114 43.38C70.7498 43.686 70.5945 43.9881 70.3454 44.2863C70.1078 44.5768 69.8243 44.873 69.4949 45.1748C69.1654 45.4767 68.8398 45.7844 68.518 46.0977C68.1885 46.3996 67.9107 46.7169 67.6846 47.0495C67.4623 47.363 67.3318 47.69 67.2931 48.0305C67.2544 48.371 67.3611 48.7308 67.6132 49.1099C67.9187 49.5694 68.2896 49.8282 68.7257 49.8861C69.1542 49.9326 69.5925 49.8068 70.0405 49.5089ZM81.6254 44.5116C80.9529 44.8323 80.3195 45.0426 79.7253 45.1425C79.1369 45.2549 78.606 45.2635 78.1327 45.1683C77.6533 45.0606 77.2312 44.8645 76.8663 44.58C76.5013 44.2954 76.2058 43.932 75.9795 43.4896L77.2397 42.4302C77.4108 42.853 77.6826 43.1666 78.0552 43.3711C78.4343 43.5571 78.8742 43.6302 79.3748 43.5901C79.8878 43.5442 80.4494 43.3757 81.0596 43.0848C81.7944 42.7344 82.3016 42.3397 82.5813 41.9006C82.8735 41.4556 82.9157 41.0152 82.7079 40.5793C82.5416 40.2307 82.3018 40.0164 81.9886 39.9364C81.6695 39.8441 81.2839 39.8369 80.832 39.9148C80.3865 39.9744 79.8723 40.082 79.2894 40.2377C78.7935 40.3519 78.2918 40.4536 77.7841 40.5428C77.2764 40.632 76.7883 40.6661 76.3197 40.645C75.8576 40.6055 75.4343 40.4711 75.0498 40.2417C74.6653 40.0124 74.3543 39.6487 74.1168 39.1505C73.8377 38.5653 73.7529 37.9867 73.8623 37.4148C73.9718 36.843 74.2565 36.3022 74.7165 35.7924C75.1765 35.2826 75.805 34.8378 76.602 34.4577C77.399 34.0777 78.1371 33.8786 78.8162 33.8604C79.4894 33.8298 80.0918 33.9552 80.6234 34.2367C81.155 34.5182 81.5791 34.9426 81.8955 35.5101L80.598 36.5874C80.3896 36.1824 80.1112 35.8871 79.763 35.7017C79.4271 35.5102 79.0398 35.4351 78.6009 35.4763C78.156 35.505 77.6845 35.6381 77.1864 35.8756C76.5264 36.1903 76.0628 36.5643 75.7955 36.9974C75.5282 37.4306 75.4985 37.8651 75.7063 38.3009C75.8607 38.6247 76.0975 38.8328 76.4166 38.9251C76.7483 39.0115 77.14 39.0158 77.592 38.9378C78.0439 38.8599 78.5394 38.7612 79.0785 38.6417C79.6242 38.5038 80.1508 38.3902 80.6585 38.301C81.1787 38.2058 81.6668 38.1717 82.1229 38.1987C82.5791 38.2258 82.9932 38.357 83.3652 38.5922C83.7313 38.8151 84.0361 39.1818 84.2795 39.6923C84.5824 40.3274 84.6696 40.9431 84.5412 41.5393C84.4069 42.123 84.088 42.6724 83.5847 43.1875C83.0879 43.6843 82.4348 44.1256 81.6254 44.5116ZM97.1071 38.9349C96.2202 39.1412 95.4063 39.0826 94.6653 38.7592C93.9244 38.4358 93.2906 37.9033 92.764 37.1618C92.2508 36.4171 91.8708 35.514 91.6239 34.4524C91.3769 33.3908 91.3194 32.4127 91.4513 31.518C91.5831 30.6233 91.9034 29.8689 92.4121 29.2548C92.9209 28.6407 93.6254 28.229 94.5257 28.0195C95.2648 27.8476 95.9054 27.8615 96.4476 28.0612C96.9898 28.2609 97.4598 28.5765 97.8577 29.008C98.2658 29.423 98.6043 29.9038 98.873 30.4504L99.2359 30.366C99.078 29.9919 98.9238 29.6028 98.7731 29.1988C98.6194 28.7813 98.4755 28.3757 98.3414 27.9819C98.2042 27.5747 98.0981 27.2099 98.0231 26.8874L97.2917 23.743L99.1461 23.3116L101.232 32.2812L102.428 37.4211L100.775 37.8056L100.219 34.9602L99.897 35.0352C99.8764 35.6774 99.773 36.2681 99.5867 36.8071C99.3974 37.3328 99.1055 37.7831 98.7111 38.1581C98.3136 38.5197 97.779 38.7786 97.1071 38.9349ZM97.1553 37.224C97.639 37.1114 98.0492 36.8956 98.3858 36.5766C98.7223 36.2575 98.9828 35.8853 99.1671 35.46C99.3484 35.0212 99.4562 34.5712 99.4905 34.1099C99.5383 33.6455 99.5153 33.2118 99.4216 32.8087L99.3653 32.5668C99.2997 32.2846 99.189 31.9916 99.0334 31.6879C98.8746 31.3707 98.6756 31.0629 98.4362 30.7644C98.2102 30.4629 97.9368 30.2007 97.6158 29.9779C97.3052 29.7385 96.9631 29.5773 96.5897 29.4942C96.2131 29.3976 95.8166 29.3978 95.4 29.4947C94.7953 29.6353 94.3253 29.9288 93.99 30.3751C93.665 30.8048 93.4638 31.3403 93.3863 31.9815C93.3223 32.6197 93.3762 33.3083 93.5481 34.0473C93.7262 34.8133 93.99 35.4601 94.3394 35.9879C94.6857 36.5023 95.0979 36.8739 95.576 37.1026C96.0645 37.3148 96.5909 37.3552 97.1553 37.224ZM110.251 36.7446C109.412 36.8117 108.66 36.7474 107.994 36.5516C107.34 36.3409 106.774 36.0125 106.296 35.5664C105.817 35.1203 105.441 34.5759 105.168 33.9334C104.895 33.2909 104.726 32.5571 104.66 31.732C104.593 30.8931 104.641 30.1142 104.805 29.3952C104.969 28.6762 105.243 28.0384 105.628 27.4817C106.012 26.925 106.503 26.4843 107.1 26.1597C107.696 25.8214 108.392 25.6203 109.19 25.5565C109.891 25.5004 110.54 25.5661 111.136 25.7537C111.733 25.9413 112.25 26.2666 112.688 26.7298C113.14 27.1781 113.498 27.7653 113.764 28.4914C114.028 29.2038 114.18 30.0567 114.218 31.0502L105.847 31.7823L105.745 30.5033L112.981 29.862L112.411 30.7796C112.41 29.9077 112.27 29.1992 111.991 28.654C111.712 28.1089 111.341 27.7095 110.878 27.456C110.429 27.2013 109.908 27.0976 109.317 27.1449C108.684 27.1955 108.141 27.4051 107.686 27.7737C107.231 28.1423 106.897 28.6465 106.686 29.2862C106.488 29.9249 106.424 30.6843 106.494 31.5644C106.596 32.8296 106.955 33.7766 107.573 34.4054C108.189 35.0204 109.055 35.2833 110.169 35.1941C110.595 35.16 110.962 35.0822 111.271 34.9606C111.592 34.8242 111.856 34.6578 112.062 34.4614C112.28 34.2501 112.448 34.0152 112.566 33.7567C112.697 33.497 112.793 33.2195 112.852 32.9241L114.534 33.184C114.45 33.689 114.293 34.1513 114.063 34.5711C113.847 34.976 113.557 35.3313 113.194 35.6372C112.844 35.9419 112.428 36.1898 111.945 36.3807C111.462 36.5716 110.898 36.6929 110.251 36.7446ZM126.508 40.4968C125.388 40.3379 124.479 40.1183 123.78 39.838C123.093 39.5732 122.604 39.2391 122.313 38.8355C122.02 38.4455 121.91 37.991 121.984 37.472C122.073 36.8436 122.392 36.3595 122.942 36.0195C123.492 35.6795 124.275 35.5119 125.292 35.5168L125.344 35.148C124.62 35.0453 124.086 34.879 123.743 34.6491C123.399 34.4192 123.253 34.1266 123.303 33.7715C123.355 33.4027 123.583 33.1215 123.987 32.928C124.393 32.7208 125.028 32.567 125.892 32.4667L125.947 32.0774C125.116 31.9455 124.516 31.6095 124.146 31.0694C123.779 30.5156 123.651 29.8495 123.761 29.0709C123.86 28.3742 124.13 27.7994 124.57 27.3463C125.026 26.8815 125.629 26.563 126.378 26.3906C127.143 26.2064 128.023 26.1851 129.021 26.3266L134.02 27.0361L133.796 28.6137L130.59 27.6363L130.535 28.0256C131.304 28.3019 131.872 28.6682 132.24 29.1244C132.609 29.567 132.747 30.1161 132.654 30.7717C132.57 31.3591 132.327 31.8471 131.923 32.2357C131.52 32.6244 130.966 32.8941 130.262 33.045C129.573 33.1842 128.744 33.185 127.774 33.0474C127.583 33.0202 127.379 32.9843 127.162 32.9396C126.961 32.8832 126.694 32.8035 126.36 32.7004C125.959 32.8803 125.628 33.0494 125.369 33.2076C125.123 33.3679 124.99 33.5231 124.968 33.6733C124.947 33.8236 125.032 33.9611 125.223 34.0858C125.43 34.1987 125.682 34.2902 125.979 34.3602C126.275 34.4301 126.553 34.4835 126.813 34.5203L129.21 34.8605C129.483 34.8993 129.821 34.9751 130.223 35.0879C130.639 35.2026 131.039 35.3778 131.423 35.6135C131.821 35.8512 132.138 36.1748 132.372 36.5843C132.607 36.9938 132.678 37.5264 132.585 38.182C132.48 38.9196 132.176 39.4896 131.673 39.892C131.17 40.2944 130.487 40.539 129.625 40.6256C128.763 40.7123 127.724 40.6693 126.508 40.4968ZM126.767 38.966C127.682 39.0958 128.429 39.139 129.006 39.0956C129.595 39.0677 130.037 38.9492 130.332 38.7402C130.64 38.5331 130.821 38.2383 130.875 37.8558C130.926 37.5007 130.869 37.2139 130.705 36.9956C130.556 36.7655 130.351 36.5901 130.089 36.4694C129.828 36.3486 129.562 36.2621 129.29 36.2096C129.021 36.1435 128.791 36.0969 128.599 36.0698L126.202 35.7296C125.385 35.7948 124.804 35.9631 124.458 36.2346C124.113 36.5062 123.916 36.8195 123.865 37.1746C123.811 37.5571 123.907 37.8633 124.153 38.0933C124.399 38.3233 124.749 38.5054 125.204 38.6396C125.672 38.7758 126.193 38.8845 126.767 38.966ZM128.028 31.8501C128.888 31.9722 129.562 31.8867 130.05 31.5936C130.537 31.3005 130.824 30.8534 130.909 30.2524C131 29.6104 130.849 29.0525 130.457 28.5788C130.08 28.0933 129.447 27.7876 128.559 27.6616C127.699 27.5395 127.008 27.6435 126.488 27.9738C125.981 28.3059 125.683 28.7862 125.593 29.4145C125.535 29.8243 125.586 30.2008 125.747 30.544C125.923 30.8756 126.196 31.1582 126.567 31.392C126.953 31.6141 127.44 31.7668 128.028 31.8501ZM137.213 39.1581C136.657 38.9936 136.186 38.739 135.799 38.3942C135.416 38.0362 135.154 37.6063 135.015 37.1047C134.88 36.5898 134.91 36.0017 135.106 35.3402C135.251 34.8508 135.464 34.4463 135.745 34.1268C136.04 33.8112 136.412 33.5759 136.861 33.421C137.323 33.27 137.877 33.1966 138.523 33.2008C139.169 33.205 139.94 33.2749 140.835 33.4104C141.344 33.4891 141.761 33.5404 142.084 33.5643C142.421 33.5922 142.684 33.5549 142.873 33.4524C143.065 33.3368 143.207 33.1268 143.297 32.8225C143.446 32.3198 143.399 31.8456 143.157 31.3998C142.915 30.9541 142.423 30.6215 141.682 30.4023C141.299 30.2887 140.889 30.2393 140.453 30.2541C140.017 30.269 139.6 30.3901 139.201 30.6175C138.82 30.8356 138.508 31.2107 138.264 31.7429L136.762 30.6939C137.008 30.249 137.308 29.8699 137.659 29.5568C138.024 29.2475 138.438 29.0174 138.9 28.8664C139.366 28.7021 139.871 28.6216 140.417 28.6249C140.976 28.6321 141.566 28.7277 142.188 28.9118C143.048 29.1663 143.719 29.5233 144.202 29.9827C144.698 30.446 144.995 31.0231 145.093 31.7138C145.207 32.3953 145.126 33.2056 144.848 34.1449L144.172 36.4269C144.051 36.837 143.924 37.2887 143.793 37.7821C143.678 38.2662 143.568 38.7588 143.463 39.26C143.362 39.748 143.268 40.2096 143.183 40.6446L141.516 40.1512C141.602 39.7162 141.687 39.2811 141.773 38.846C141.872 38.4149 141.977 37.9857 142.089 37.5584L141.831 37.4821C141.488 37.9128 141.088 38.2909 140.632 38.6163C140.176 38.9417 139.658 39.1623 139.077 39.2781C138.509 39.3978 137.888 39.3578 137.213 39.1581ZM138.183 37.8483C138.474 37.9344 138.779 37.9743 139.098 37.9678C139.429 37.9653 139.772 37.9013 140.126 37.7757C140.493 37.6541 140.857 37.4671 141.22 37.2147C141.595 36.9662 141.958 36.6418 142.306 36.2415L142.894 34.2571L143.38 34.5091C143.106 34.6581 142.775 34.7326 142.386 34.7327C142.011 34.7367 141.602 34.7092 141.159 34.65C140.716 34.5909 140.271 34.5383 139.824 34.4924C139.381 34.4332 138.96 34.4235 138.559 34.4633C138.176 34.4938 137.842 34.6034 137.556 34.7921C137.27 34.9808 137.062 35.2934 136.933 35.73C136.776 36.2591 136.815 36.7096 137.051 37.0814C137.29 37.4399 137.667 37.6956 138.183 37.8483ZM146.095 41.6621L148.409 36.3499L150.368 31.8535L151.924 32.5313L150.284 35.8802L150.607 36.0207C151.046 35.324 151.504 34.7561 151.981 34.317C152.458 33.8778 152.959 33.5918 153.484 33.4591C154.021 33.3319 154.586 33.3978 155.181 33.6568C155.307 33.7119 155.447 33.7879 155.601 33.8848C155.76 33.9691 155.93 34.096 156.112 34.2656L155.232 36.0266C155.075 35.8681 154.908 35.7348 154.729 35.6269C154.556 35.5063 154.38 35.4074 154.203 35.3302C153.71 35.1153 153.211 35.0861 152.707 35.2425C152.215 35.4044 151.73 35.7049 151.253 36.1441C150.781 36.5706 150.323 37.086 149.88 37.6902L147.821 42.4143L146.095 41.6621ZM155.605 46.5917C155.106 46.2964 154.711 45.9342 154.42 45.5052C154.136 45.0644 153.988 44.5837 153.976 44.0632C153.97 43.5309 154.143 42.968 154.495 42.3745C154.755 41.9353 155.061 41.5952 155.412 41.3543C155.775 41.1203 156.193 40.9831 156.666 40.9426C157.151 40.9091 157.706 40.9734 158.332 41.1355C158.957 41.2976 159.687 41.5537 160.522 41.9039C160.997 42.1048 161.388 42.2563 161.696 42.3587C162.016 42.4681 162.28 42.4962 162.488 42.443C162.703 42.3779 162.891 42.2088 163.053 41.9358C163.32 41.4848 163.391 41.0135 163.265 40.5221C163.139 40.0306 162.744 39.588 162.079 39.1943C161.735 38.9904 161.35 38.8423 160.923 38.7501C160.497 38.6578 160.063 38.6733 159.621 38.7964C159.198 38.9148 158.803 39.2021 158.437 39.6585L157.236 38.274C157.585 37.9029 157.967 37.6085 158.385 37.3909C158.814 37.1802 159.272 37.0582 159.756 37.0247C160.248 36.9793 160.758 37.0249 161.287 37.1616C161.827 37.3052 162.376 37.5423 162.934 37.8727C163.706 38.3298 164.269 38.84 164.625 39.4035C164.993 39.974 165.139 40.6061 165.065 41.2998C165.01 41.9887 164.733 42.7545 164.233 43.5972L163.021 45.6448C162.803 46.0128 162.569 46.4199 162.321 46.8661C162.092 47.3075 161.865 47.7583 161.64 48.2186C161.423 48.667 161.219 49.0917 161.03 49.4927L159.534 48.6067C159.724 48.2058 159.913 47.8048 160.102 47.4039C160.304 47.01 160.511 46.6196 160.724 46.2327L160.493 46.0956C160.054 46.4294 159.574 46.6982 159.053 46.9023C158.531 47.1064 157.974 47.1935 157.382 47.1637C156.803 47.141 156.21 46.9503 155.605 46.5917ZM156.866 45.5589C157.127 45.7136 157.413 45.8267 157.723 45.8983C158.045 45.9769 158.393 45.9986 158.767 45.9634C159.152 45.9352 159.552 45.843 159.965 45.6869C160.39 45.5378 160.821 45.3118 161.257 45.0088L162.311 43.2283L162.721 43.5916C162.419 43.669 162.079 43.6603 161.703 43.5654C161.338 43.4775 160.948 43.3508 160.533 43.1851C160.118 43.0195 159.699 42.8598 159.277 42.706C158.862 42.5403 158.456 42.4279 158.058 42.3686C157.679 42.3045 157.328 42.3289 157.004 42.442C156.681 42.555 156.403 42.8074 156.171 43.1991C155.89 43.6739 155.818 44.1203 155.955 44.5383C156.099 44.9445 156.403 45.2846 156.866 45.5589ZM163.457 51.1227L167.64 45.9624L170.195 42.8116L171.513 43.8802L169.231 46.3993L169.504 46.6209C170.184 46.0888 170.817 45.7137 171.402 45.4955C171.998 45.2861 172.572 45.2359 173.123 45.3451C173.673 45.4542 174.206 45.7173 174.72 46.1343C175.642 46.8815 176.069 47.7784 176.002 48.8252C175.955 49.8699 175.401 51.046 174.341 52.3534L170.627 56.935L169.148 55.736L172.758 51.2831C173.522 50.34 173.937 49.5218 174.002 48.8284C174.077 48.1437 173.831 47.5711 173.263 47.1106C172.749 46.6936 172.179 46.4982 171.554 46.5243C170.94 46.5591 170.318 46.7565 169.688 47.1166C169.059 47.4766 168.486 47.9534 167.969 48.5469L164.92 52.3086L163.457 51.1227ZM175.192 61.6347C174.505 60.9171 174.189 60.1978 174.244 59.4769C174.299 58.7561 174.725 58.0141 175.522 57.251L179.903 53.0587L178.787 51.8925L179.938 50.82L180.639 51.5527C180.877 51.8018 181.094 51.9383 181.288 51.9621C181.493 51.9959 181.709 51.9226 181.937 51.7422L183.247 50.7757L184.048 51.613L182.298 53.287L184.43 55.5147L183.279 56.6164L181.147 54.3887L176.811 58.5381C176.413 58.9196 176.209 59.2859 176.202 59.6371C176.214 59.9886 176.386 60.3388 176.72 60.6877C176.901 60.877 177.112 61.0476 177.353 61.1992C177.603 61.3608 177.898 61.4698 178.239 61.5261L176.878 62.8281C176.492 62.644 176.16 62.4464 175.881 62.2353C175.612 62.0343 175.383 61.8341 175.192 61.6347ZM178.56 65.0298L186.921 58.354L188.096 59.8257L179.735 66.5015L178.56 65.0298ZM188.97 57.9358C188.695 57.5908 188.558 57.2761 188.561 56.9917C188.563 56.7073 188.705 56.4532 188.985 56.2293C189.265 56.0055 189.544 55.9239 189.822 55.9845C190.1 56.0451 190.373 56.2425 190.639 56.5767C190.915 56.9217 191.051 57.2364 191.049 57.5208C191.047 57.8052 190.905 58.0593 190.625 58.2832C190.355 58.4984 190.076 58.58 189.788 58.528C189.51 58.4674 189.237 58.27 188.97 57.9358ZM182.967 71.6028C182.655 71.1147 182.465 70.6137 182.398 70.0996C182.343 69.5781 182.427 69.0821 182.65 68.6117C182.884 68.1339 183.292 67.7091 183.873 67.3372C184.303 67.062 184.729 66.8958 185.151 66.8386C185.581 66.793 186.016 66.8586 186.456 67.0352C186.904 67.2234 187.371 67.5306 187.857 67.9568C188.343 68.383 188.88 68.9403 189.468 69.6287C189.801 70.0214 190.082 70.3328 190.311 70.5629C190.548 70.8046 190.771 70.9484 190.981 70.9944C191.202 71.033 191.446 70.9668 191.714 70.7957C192.155 70.5131 192.43 70.124 192.539 69.6285C192.648 69.133 192.494 68.5599 192.077 67.9092C191.862 67.5722 191.584 67.2666 191.245 66.9924C190.906 66.7182 190.511 66.5367 190.061 66.448C189.63 66.3634 189.148 66.4424 188.616 66.6851L188.167 64.9086C188.644 64.7338 189.119 64.6431 189.59 64.6366C190.068 64.6417 190.531 64.7384 190.979 64.9266C191.439 65.1074 191.874 65.3777 192.284 65.7374C192.702 66.1088 193.086 66.5675 193.436 67.1136C193.919 67.8689 194.193 68.5782 194.257 69.2415C194.329 69.9164 194.175 70.5469 193.797 71.1331C193.438 71.7234 192.845 72.2826 192.02 72.8106L190.016 74.0936C189.656 74.3242 189.264 74.5828 188.842 74.8697C188.438 75.1606 188.033 75.4612 187.625 75.7712C187.229 76.0738 186.857 76.3615 186.507 76.6344L185.57 75.1703C185.919 74.8974 186.269 74.6246 186.618 74.3517C186.975 74.0905 187.336 73.8351 187.701 73.5854L187.555 73.3588C187.014 73.4597 186.464 73.4839 185.907 73.4314C185.349 73.3789 184.812 73.2063 184.297 72.9135C183.79 72.6323 183.346 72.1954 182.967 71.6028ZM184.558 71.2478C184.722 71.5035 184.926 71.7331 185.171 71.9366C185.423 72.1518 185.724 72.3278 186.074 72.4644C186.431 72.6126 186.829 72.71 187.268 72.7565C187.715 72.8145 188.201 72.8064 188.727 72.732L190.47 71.6164L190.673 72.1253C190.368 72.0584 190.068 71.8978 189.775 71.6436C189.488 71.401 189.197 71.1124 188.901 70.7777C188.605 70.4431 188.303 70.1121 187.995 69.7849C187.699 69.4503 187.387 69.167 187.058 68.9351C186.749 68.7073 186.424 68.5711 186.084 68.5265C185.744 68.4819 185.383 68.5823 184.999 68.8278C184.535 69.1253 184.269 69.4916 184.204 69.9266C184.15 70.3542 184.268 70.7946 184.558 71.2478ZM191.85 90.4953L197.227 87.5508L193.32 82.811L193.54 82.5602L198.793 85.7426L200.937 80.0151L201.265 80.0774L201.141 86.2042L207.191 85.2166L207.299 85.5297L201.922 88.4742L205.79 93.2274L205.57 93.4782L200.356 90.2824L198.173 96.0233L197.845 95.9611L198.008 89.8208L191.958 90.8084L191.85 90.4953Z" fill="#4D4D4D"/>
</svg>
