<svg width="70" height="70" viewBox="0 0 70 70" fill="none" xmlns="http://www.w3.org/2000/svg">
<path d="M21.3902 11.138C23.7347 10.9509 25.9604 10.029 27.7505 8.50347C31.9279 4.94351 38.072 4.94351 42.2495 8.50347C44.0396 10.029 46.2653 10.9509 48.6098 11.138C54.081 11.5746 58.4255 15.9192 58.8621 21.3903C59.0492 23.7348 59.9712 25.9606 61.4967 27.7507C65.0567 31.9281 65.0567 38.0722 61.4967 42.2496C59.9712 44.0397 59.0492 46.2655 58.8621 48.61C58.4255 54.0812 54.081 58.4257 48.6098 58.8623C46.2653 59.0494 44.0396 59.9713 42.2495 61.4969C38.072 65.0568 31.9279 65.0568 27.7505 61.4969C25.9604 59.9713 23.7347 59.0494 21.3902 58.8623C15.919 58.4257 11.5745 54.0812 11.1379 48.61C10.9508 46.2655 10.0288 44.0397 8.5033 42.2496C4.94334 38.0722 4.94334 31.9281 8.5033 27.7507C10.0288 25.9606 10.9508 23.7348 11.1379 21.3903C11.5745 15.9192 15.919 11.5746 21.3902 11.138Z" fill="#FFC900"/>
<path d="M26.25 35.0002L32.0833 40.8335L45.2083 27.7085M21.3902 11.138C23.7347 10.9509 25.9604 10.029 27.7505 8.50347C31.9279 4.94351 38.072 4.94351 42.2495 8.50347C44.0396 10.029 46.2653 10.9509 48.6098 11.138C54.081 11.5746 58.4255 15.9192 58.8621 21.3903C59.0492 23.7348 59.9712 25.9606 61.4967 27.7507C65.0567 31.9281 65.0567 38.0722 61.4967 42.2496C59.9712 44.0397 59.0492 46.2655 58.8621 48.61C58.4255 54.0812 54.081 58.4257 48.6098 58.8623C46.2653 59.0494 44.0396 59.9713 42.2495 61.4969C38.072 65.0568 31.9279 65.0568 27.7505 61.4969C25.9604 59.9713 23.7347 59.0494 21.3902 58.8623C15.919 58.4257 11.5745 54.0812 11.1379 48.61C10.9508 46.2655 10.0288 44.0397 8.5033 42.2496C4.94334 38.0722 4.94334 31.9281 8.5033 27.7507C10.0288 25.9606 10.9508 23.7348 11.1379 21.3903C11.5745 15.9192 15.919 11.5746 21.3902 11.138Z" stroke="black" stroke-width="3" stroke-linecap="round" stroke-linejoin="round"/>
</svg>
