<svg width="313" height="119" viewBox="0 0 313 119" fill="none" xmlns="http://www.w3.org/2000/svg">
<mask id="path-1-outside-1_360_10086" maskUnits="userSpaceOnUse" x="0" y="0" width="313" height="119" fill="black">
<rect fill="white" width="313" height="119"/>
<path d="M14.992 2C15.7941 2 16.3877 2.74188 16.3877 3.54395C16.3878 7.71015 19.7654 11.0879 23.9316 11.0879C28.0977 11.0877 31.4745 7.71001 31.4746 3.54395C31.4746 2.74188 32.0682 2 32.8703 2H35.3788C36.1809 2 36.7754 2.74192 36.7754 3.54395C36.7755 7.71006 40.1523 11.0877 44.3184 11.0879C48.4846 11.0879 51.8622 7.71015 51.8623 3.54395C51.8623 2.74188 52.4559 2 53.258 2H55.7664C56.5685 2 57.1621 2.74187 57.1621 3.54395C57.1622 7.71014 60.5398 11.0879 64.7061 11.0879C68.8723 11.0879 72.2499 7.71015 72.25 3.54395C72.25 2.74187 72.8436 2 73.6457 2H76.1541C76.9562 2 77.5498 2.74188 77.5498 3.54395C77.5499 7.71015 80.9275 11.0879 85.0938 11.0879C89.2599 11.0878 92.6376 7.71009 92.6377 3.54395C92.6377 2.74187 93.2313 2 94.0334 2H96.5418C97.3439 2 97.9375 2.74188 97.9375 3.54395C97.9376 7.71015 101.315 11.0879 105.481 11.0879C109.647 11.0877 113.024 7.71001 113.024 3.54395C113.024 2.74188 113.618 2 114.42 2H116.929C117.731 2 118.325 2.74192 118.325 3.54395C118.325 7.71006 121.702 11.0877 125.868 11.0879C130.034 11.0879 133.412 7.71015 133.412 3.54395C133.412 2.74188 134.006 2 134.808 2H137.316C138.118 2 138.712 2.74187 138.712 3.54395C138.712 7.71014 142.09 11.0879 146.256 11.0879C150.422 11.0879 153.8 7.71015 153.8 3.54395C153.8 2.74187 154.393 2 155.195 2H157.704C158.506 2 159.1 2.74188 159.1 3.54395C159.1 7.71015 162.477 11.0879 166.644 11.0879C170.81 11.0878 174.187 7.71009 174.188 3.54395C174.188 2.74187 174.781 2 175.583 2L178.092 2C178.894 2 179.487 2.74188 179.487 3.54395C179.487 7.71015 182.865 11.0879 187.031 11.0879C191.197 11.0877 194.574 7.71001 194.574 3.54395C194.574 2.74188 195.168 2 195.97 2H198.478C199.28 2 199.875 2.74192 199.875 3.54395C199.875 7.71006 203.252 11.0877 207.418 11.0879C211.584 11.0879 214.962 7.71015 214.962 3.54395C214.962 2.74188 215.556 2 216.358 2H218.866C219.668 2 220.262 2.74187 220.262 3.54395C220.262 7.71014 223.639 11.0879 227.806 11.0879C231.972 11.0879 235.35 7.71015 235.35 3.54395C235.35 2.74187 235.943 2 236.745 2H239.254C240.056 2 240.649 2.74188 240.649 3.54395C240.65 7.71015 244.027 11.0879 248.193 11.0879C252.359 11.0878 255.737 7.71009 255.737 3.54395C255.737 2.74187 256.331 2 257.133 2H259.641C260.444 2 261.037 2.74188 261.037 3.54395C261.037 7.71015 264.415 11.0879 268.581 11.0879C272.747 11.0877 276.124 7.71001 276.124 3.54395C276.124 2.74188 276.718 2 277.52 2H280.028C280.83 2 281.425 2.74192 281.425 3.54395C281.425 7.71006 284.802 11.0877 288.968 11.0879C293.134 11.0879 296.512 7.71015 296.512 3.54395C296.512 2.74188 297.105 2 297.907 2H300.416C301.218 2 301.812 2.74187 301.812 3.54395C301.812 7.71014 305.189 11.0879 309.355 11.0879C310.206 11.0879 311 11.7124 311 12.5632V14.5583C311 14.8058 310.791 15 310.544 15C306.378 15 303 18.3776 303 22.5439C303 26.7102 306.378 30.0879 310.544 30.0879C310.791 30.0879 311 30.2811 311 30.5287V33.196C311 33.4435 310.791 33.6377 310.544 33.6377C306.378 33.6377 303 37.0153 303 41.1816C303 45.3477 306.378 48.7246 310.544 48.7246C310.791 48.7246 311 48.9178 311 49.1654V51.8337C311 52.0812 310.791 52.2754 310.544 52.2754C306.378 52.2754 303 55.6522 303 59.8184C303 63.9847 306.378 67.3623 310.544 67.3623C310.791 67.3623 311 67.5555 311 67.8031V70.4714C311 70.7189 310.791 70.9131 310.544 70.9131C306.378 70.9131 303 74.2899 303 78.4561C303 82.6224 306.378 86 310.544 86C310.791 86 311 86.1932 311 86.4408V88.5583C311 88.8058 310.791 89 310.544 89C306.378 89 303 92.3776 303 96.5439C303 100.71 306.378 104.088 310.544 104.088C310.791 104.088 311 104.281 311 104.529V107.514C311 107.786 310.771 108 310.5 108C305.806 108 302 111.806 302 116.5C302 116.771 301.787 117 301.515 117H299.075C297.619 117 296.459 115.836 295.872 114.503C294.703 111.851 292.052 110 288.968 110C285.914 110 283.286 111.814 282.1 114.423C281.477 115.794 280.28 117 278.774 117C277.269 117 276.072 115.794 275.449 114.423C274.262 111.814 271.634 110 268.581 110C265.527 110 262.899 111.814 261.712 114.424C261.089 115.794 259.892 117 258.387 117C256.882 117 255.685 115.794 255.062 114.424C253.876 111.814 251.247 110 248.193 110C245.14 110 242.511 111.814 241.325 114.424C240.702 115.794 239.505 117 238 117C236.494 117 235.297 115.794 234.674 114.424C233.488 111.814 230.859 110 227.806 110C224.752 110 222.123 111.814 220.937 114.424C220.314 115.794 219.117 117 217.612 117C216.107 117 214.91 115.794 214.287 114.424C213.1 111.814 210.472 110 207.418 110C204.365 110 201.737 111.814 200.55 114.423C199.927 115.794 198.73 117 197.225 117C195.719 117 194.522 115.794 193.899 114.423C192.713 111.814 190.085 110 187.031 110C183.978 110 181.349 111.814 180.163 114.424C179.54 115.794 178.343 117 176.837 117C175.332 117 174.135 115.794 173.512 114.424C172.326 111.814 169.697 110 166.644 110C163.59 110 160.961 111.814 159.775 114.424C159.152 115.794 157.955 117 156.45 117C154.945 117 153.747 115.794 153.125 114.424C151.938 111.814 149.309 110 146.256 110C143.202 110 140.574 111.814 139.387 114.424C138.764 115.794 137.567 117 136.062 117C134.557 117 133.36 115.794 132.737 114.424C131.55 111.814 128.922 110 125.868 110C122.815 110 120.187 111.814 119.001 114.423C118.378 115.794 117.18 117 115.675 117C114.169 117 112.972 115.794 112.349 114.423C111.163 111.814 108.535 110 105.481 110C102.428 110 99.7991 111.814 98.6128 114.424C97.9899 115.794 96.7927 117 95.2876 117C93.7825 117 92.5853 115.794 91.9624 114.424C90.776 111.814 88.1473 110 85.0938 110C82.0401 110 79.4114 111.814 78.2251 114.424C77.6022 115.794 76.405 117 74.8999 117C73.3948 117 72.1976 115.794 71.5747 114.424C70.3884 111.814 67.7597 110 64.7061 110C61.6524 110 59.0237 111.814 57.8374 114.424C57.2145 115.794 56.0173 117 54.5122 117C53.0071 117 51.8099 115.794 51.187 114.424C50.0007 111.814 47.372 110 44.3184 110C41.2651 110 38.637 111.814 37.4508 114.423C36.8278 115.794 35.6304 117 34.125 117C32.6196 117 31.4222 115.794 30.7992 114.423C29.6129 111.814 26.9849 110 23.9316 110C20.8305 110 18.1675 111.871 17.0086 114.546C16.4403 115.858 15.3014 117 13.8717 117H11.4847C11.2132 117 11 116.771 11 116.5C11 111.806 7.19442 108 2.5 108C2.22852 108 2 107.786 2 107.514L2 105.928C2 104.886 2.82656 104.05 3.82024 103.736C6.87393 102.771 9.08781 99.9167 9.08789 96.5439C9.08789 93.0519 6.71485 90.1147 3.49359 89.2555C2.67134 89.0361 2 88.3505 2 87.4995C2 86.6485 2.67133 85.9629 3.49358 85.7436C6.71483 84.8845 9.08789 81.9481 9.08789 78.4561C9.08776 75.0605 6.84391 72.1901 3.75828 71.2443C2.79675 70.9496 2 70.1429 2 69.1372C2 68.1315 2.79674 67.3248 3.75827 67.0301C6.84399 66.0843 9.08789 63.214 9.08789 59.8184C9.08776 56.4228 6.84391 53.5524 3.75828 52.6067C2.79675 52.3119 2 51.5052 2 50.4995C2 49.4938 2.79674 48.6871 3.75828 48.3924C6.84385 47.4468 9.0877 44.5771 9.08789 41.1816C9.08789 37.7858 6.84377 34.9147 3.7578 33.9689C2.79653 33.6742 2 32.8677 2 31.8623C2 30.8569 2.79652 30.0504 3.75781 29.7558C6.84371 28.8102 9.0878 25.9397 9.08789 22.5439C9.08789 19.142 6.83576 16.2667 3.74126 15.3261C2.78863 15.0365 2 14.2376 2 13.2419V12.4836C2 11.6815 2.74187 11.0879 3.54395 11.0879C7.71009 11.0878 11.0878 7.71009 11.0879 3.54395C11.0879 2.74187 11.6815 2 12.4836 2H14.992Z"/>
</mask>
<path d="M14.992 2C15.7941 2 16.3877 2.74188 16.3877 3.54395C16.3878 7.71015 19.7654 11.0879 23.9316 11.0879C28.0977 11.0877 31.4745 7.71001 31.4746 3.54395C31.4746 2.74188 32.0682 2 32.8703 2H35.3788C36.1809 2 36.7754 2.74192 36.7754 3.54395C36.7755 7.71006 40.1523 11.0877 44.3184 11.0879C48.4846 11.0879 51.8622 7.71015 51.8623 3.54395C51.8623 2.74188 52.4559 2 53.258 2H55.7664C56.5685 2 57.1621 2.74187 57.1621 3.54395C57.1622 7.71014 60.5398 11.0879 64.7061 11.0879C68.8723 11.0879 72.2499 7.71015 72.25 3.54395C72.25 2.74187 72.8436 2 73.6457 2H76.1541C76.9562 2 77.5498 2.74188 77.5498 3.54395C77.5499 7.71015 80.9275 11.0879 85.0938 11.0879C89.2599 11.0878 92.6376 7.71009 92.6377 3.54395C92.6377 2.74187 93.2313 2 94.0334 2H96.5418C97.3439 2 97.9375 2.74188 97.9375 3.54395C97.9376 7.71015 101.315 11.0879 105.481 11.0879C109.647 11.0877 113.024 7.71001 113.024 3.54395C113.024 2.74188 113.618 2 114.42 2H116.929C117.731 2 118.325 2.74192 118.325 3.54395C118.325 7.71006 121.702 11.0877 125.868 11.0879C130.034 11.0879 133.412 7.71015 133.412 3.54395C133.412 2.74188 134.006 2 134.808 2H137.316C138.118 2 138.712 2.74187 138.712 3.54395C138.712 7.71014 142.09 11.0879 146.256 11.0879C150.422 11.0879 153.8 7.71015 153.8 3.54395C153.8 2.74187 154.393 2 155.195 2H157.704C158.506 2 159.1 2.74188 159.1 3.54395C159.1 7.71015 162.477 11.0879 166.644 11.0879C170.81 11.0878 174.187 7.71009 174.188 3.54395C174.188 2.74187 174.781 2 175.583 2L178.092 2C178.894 2 179.487 2.74188 179.487 3.54395C179.487 7.71015 182.865 11.0879 187.031 11.0879C191.197 11.0877 194.574 7.71001 194.574 3.54395C194.574 2.74188 195.168 2 195.97 2H198.478C199.28 2 199.875 2.74192 199.875 3.54395C199.875 7.71006 203.252 11.0877 207.418 11.0879C211.584 11.0879 214.962 7.71015 214.962 3.54395C214.962 2.74188 215.556 2 216.358 2H218.866C219.668 2 220.262 2.74187 220.262 3.54395C220.262 7.71014 223.639 11.0879 227.806 11.0879C231.972 11.0879 235.35 7.71015 235.35 3.54395C235.35 2.74187 235.943 2 236.745 2H239.254C240.056 2 240.649 2.74188 240.649 3.54395C240.65 7.71015 244.027 11.0879 248.193 11.0879C252.359 11.0878 255.737 7.71009 255.737 3.54395C255.737 2.74187 256.331 2 257.133 2H259.641C260.444 2 261.037 2.74188 261.037 3.54395C261.037 7.71015 264.415 11.0879 268.581 11.0879C272.747 11.0877 276.124 7.71001 276.124 3.54395C276.124 2.74188 276.718 2 277.52 2H280.028C280.83 2 281.425 2.74192 281.425 3.54395C281.425 7.71006 284.802 11.0877 288.968 11.0879C293.134 11.0879 296.512 7.71015 296.512 3.54395C296.512 2.74188 297.105 2 297.907 2H300.416C301.218 2 301.812 2.74187 301.812 3.54395C301.812 7.71014 305.189 11.0879 309.355 11.0879C310.206 11.0879 311 11.7124 311 12.5632V14.5583C311 14.8058 310.791 15 310.544 15C306.378 15 303 18.3776 303 22.5439C303 26.7102 306.378 30.0879 310.544 30.0879C310.791 30.0879 311 30.2811 311 30.5287V33.196C311 33.4435 310.791 33.6377 310.544 33.6377C306.378 33.6377 303 37.0153 303 41.1816C303 45.3477 306.378 48.7246 310.544 48.7246C310.791 48.7246 311 48.9178 311 49.1654V51.8337C311 52.0812 310.791 52.2754 310.544 52.2754C306.378 52.2754 303 55.6522 303 59.8184C303 63.9847 306.378 67.3623 310.544 67.3623C310.791 67.3623 311 67.5555 311 67.8031V70.4714C311 70.7189 310.791 70.9131 310.544 70.9131C306.378 70.9131 303 74.2899 303 78.4561C303 82.6224 306.378 86 310.544 86C310.791 86 311 86.1932 311 86.4408V88.5583C311 88.8058 310.791 89 310.544 89C306.378 89 303 92.3776 303 96.5439C303 100.71 306.378 104.088 310.544 104.088C310.791 104.088 311 104.281 311 104.529V107.514C311 107.786 310.771 108 310.5 108C305.806 108 302 111.806 302 116.5C302 116.771 301.787 117 301.515 117H299.075C297.619 117 296.459 115.836 295.872 114.503C294.703 111.851 292.052 110 288.968 110C285.914 110 283.286 111.814 282.1 114.423C281.477 115.794 280.28 117 278.774 117C277.269 117 276.072 115.794 275.449 114.423C274.262 111.814 271.634 110 268.581 110C265.527 110 262.899 111.814 261.712 114.424C261.089 115.794 259.892 117 258.387 117C256.882 117 255.685 115.794 255.062 114.424C253.876 111.814 251.247 110 248.193 110C245.14 110 242.511 111.814 241.325 114.424C240.702 115.794 239.505 117 238 117C236.494 117 235.297 115.794 234.674 114.424C233.488 111.814 230.859 110 227.806 110C224.752 110 222.123 111.814 220.937 114.424C220.314 115.794 219.117 117 217.612 117C216.107 117 214.91 115.794 214.287 114.424C213.1 111.814 210.472 110 207.418 110C204.365 110 201.737 111.814 200.55 114.423C199.927 115.794 198.73 117 197.225 117C195.719 117 194.522 115.794 193.899 114.423C192.713 111.814 190.085 110 187.031 110C183.978 110 181.349 111.814 180.163 114.424C179.54 115.794 178.343 117 176.837 117C175.332 117 174.135 115.794 173.512 114.424C172.326 111.814 169.697 110 166.644 110C163.59 110 160.961 111.814 159.775 114.424C159.152 115.794 157.955 117 156.45 117C154.945 117 153.747 115.794 153.125 114.424C151.938 111.814 149.309 110 146.256 110C143.202 110 140.574 111.814 139.387 114.424C138.764 115.794 137.567 117 136.062 117C134.557 117 133.36 115.794 132.737 114.424C131.55 111.814 128.922 110 125.868 110C122.815 110 120.187 111.814 119.001 114.423C118.378 115.794 117.18 117 115.675 117C114.169 117 112.972 115.794 112.349 114.423C111.163 111.814 108.535 110 105.481 110C102.428 110 99.7991 111.814 98.6128 114.424C97.9899 115.794 96.7927 117 95.2876 117C93.7825 117 92.5853 115.794 91.9624 114.424C90.776 111.814 88.1473 110 85.0938 110C82.0401 110 79.4114 111.814 78.2251 114.424C77.6022 115.794 76.405 117 74.8999 117C73.3948 117 72.1976 115.794 71.5747 114.424C70.3884 111.814 67.7597 110 64.7061 110C61.6524 110 59.0237 111.814 57.8374 114.424C57.2145 115.794 56.0173 117 54.5122 117C53.0071 117 51.8099 115.794 51.187 114.424C50.0007 111.814 47.372 110 44.3184 110C41.2651 110 38.637 111.814 37.4508 114.423C36.8278 115.794 35.6304 117 34.125 117C32.6196 117 31.4222 115.794 30.7992 114.423C29.6129 111.814 26.9849 110 23.9316 110C20.8305 110 18.1675 111.871 17.0086 114.546C16.4403 115.858 15.3014 117 13.8717 117H11.4847C11.2132 117 11 116.771 11 116.5C11 111.806 7.19442 108 2.5 108C2.22852 108 2 107.786 2 107.514L2 105.928C2 104.886 2.82656 104.05 3.82024 103.736C6.87393 102.771 9.08781 99.9167 9.08789 96.5439C9.08789 93.0519 6.71485 90.1147 3.49359 89.2555C2.67134 89.0361 2 88.3505 2 87.4995C2 86.6485 2.67133 85.9629 3.49358 85.7436C6.71483 84.8845 9.08789 81.9481 9.08789 78.4561C9.08776 75.0605 6.84391 72.1901 3.75828 71.2443C2.79675 70.9496 2 70.1429 2 69.1372C2 68.1315 2.79674 67.3248 3.75827 67.0301C6.84399 66.0843 9.08789 63.214 9.08789 59.8184C9.08776 56.4228 6.84391 53.5524 3.75828 52.6067C2.79675 52.3119 2 51.5052 2 50.4995C2 49.4938 2.79674 48.6871 3.75828 48.3924C6.84385 47.4468 9.0877 44.5771 9.08789 41.1816C9.08789 37.7858 6.84377 34.9147 3.7578 33.9689C2.79653 33.6742 2 32.8677 2 31.8623C2 30.8569 2.79652 30.0504 3.75781 29.7558C6.84371 28.8102 9.0878 25.9397 9.08789 22.5439C9.08789 19.142 6.83576 16.2667 3.74126 15.3261C2.78863 15.0365 2 14.2376 2 13.2419V12.4836C2 11.6815 2.74187 11.0879 3.54395 11.0879C7.71009 11.0878 11.0878 7.71009 11.0879 3.54395C11.0879 2.74187 11.6815 2 12.4836 2H14.992Z" fill="#FFC900"/>
<path d="M16.3877 3.54395H14.3877V3.544L16.3877 3.54395ZM23.9316 11.0879V13.0879H23.9318L23.9316 11.0879ZM31.4746 3.54395L33.4746 3.544V3.54395H31.4746ZM36.7754 3.54395H34.7754V3.544L36.7754 3.54395ZM44.3184 11.0879L44.3183 13.0879H44.3184V11.0879ZM51.8623 3.54395L53.8623 3.544V3.54395H51.8623ZM57.1621 3.54395H55.1621V3.544L57.1621 3.54395ZM64.7061 11.0879L64.706 13.0879H64.7061V11.0879ZM72.25 3.54395L74.25 3.544V3.54395H72.25ZM77.5498 3.54395H75.5498V3.544L77.5498 3.54395ZM85.0938 11.0879V13.0879H85.0938L85.0938 11.0879ZM92.6377 3.54395L94.6377 3.544V3.54395H92.6377ZM97.9375 3.54395H95.9375V3.544L97.9375 3.54395ZM105.481 11.0879V13.0879H105.482L105.481 11.0879ZM113.024 3.54395L115.024 3.544V3.54395H113.024ZM118.325 3.54395H116.325V3.544L118.325 3.54395ZM125.868 11.0879L125.868 13.0879H125.868V11.0879ZM133.412 3.54395L135.412 3.544V3.54395H133.412ZM138.712 3.54395H136.712V3.544L138.712 3.54395ZM146.256 11.0879L146.256 13.0879H146.256V11.0879ZM153.8 3.54395L155.8 3.544V3.54395L153.8 3.54395ZM159.1 3.54395H157.1V3.544L159.1 3.54395ZM166.644 11.0879V13.0879H166.644L166.644 11.0879ZM174.188 3.54395L176.188 3.544V3.54395H174.188ZM179.487 3.54395H177.487V3.544L179.487 3.54395ZM187.031 11.0879V13.0879H187.031L187.031 11.0879ZM194.574 3.54395L196.574 3.544V3.54395H194.574ZM199.875 3.54395H197.875V3.544L199.875 3.54395ZM207.418 11.0879L207.418 13.0879H207.418V11.0879ZM214.962 3.54395L216.962 3.544V3.54395H214.962ZM220.262 3.54395H218.262V3.544L220.262 3.54395ZM227.806 11.0879L227.806 13.0879H227.806V11.0879ZM235.35 3.54395L237.35 3.544V3.54395H235.35ZM240.649 3.54395H238.649V3.544L240.649 3.54395ZM248.193 11.0879V13.0879H248.193L248.193 11.0879ZM255.737 3.54395L257.737 3.544V3.54395H255.737ZM261.037 3.54395H259.037V3.544L261.037 3.54395ZM268.581 11.0879V13.0879H268.581L268.581 11.0879ZM276.124 3.54395L278.124 3.544V3.54395H276.124ZM281.425 3.54395H279.425V3.544L281.425 3.54395ZM288.968 11.0879L288.968 13.0879H288.968V11.0879ZM296.512 3.54395L298.512 3.544V3.54395L296.512 3.54395ZM301.812 3.54395H299.812V3.544L301.812 3.54395ZM309.355 11.0879V13.0879V13.0879V11.0879ZM310.544 15L310.544 13H310.544V15ZM303 22.5439H301V22.544L303 22.5439ZM310.544 30.0879V32.0879H310.544L310.544 30.0879ZM310.544 33.6377L310.544 31.6377H310.544V33.6377ZM303 41.1816H301V41.1818L303 41.1816ZM310.544 48.7246V50.7246H310.544L310.544 48.7246ZM310.544 52.2754L310.544 50.2754H310.544V52.2754ZM303 59.8184L301 59.8183V59.8184H303ZM310.544 67.3623V69.3623H310.544L310.544 67.3623ZM310.544 70.9131L310.544 68.9131H310.544V70.9131ZM303 78.4561L301 78.456V78.4561H303ZM310.544 86V88H310.544L310.544 86ZM310.544 89L310.544 87H310.544V89ZM303 96.5439H301V96.544L303 96.5439ZM310.544 104.088V106.088H310.544L310.544 104.088ZM288.968 110V108H288.968L288.968 110ZM268.581 110L268.581 108H268.581V110ZM248.193 110L248.193 108H248.193V110ZM227.806 110V108H227.806L227.806 110ZM207.418 110V108H207.418L207.418 110ZM187.031 110L187.031 108H187.031V110ZM166.644 110L166.644 108H166.644V110ZM146.256 110V108H146.256L146.256 110ZM125.868 110V108H125.868L125.868 110ZM105.481 110L105.482 108H105.481V110ZM85.0938 110L85.0938 108H85.0938V110ZM64.7061 110V108H64.706L64.7061 110ZM44.3184 110V108H44.3183L44.3184 110ZM23.9316 110L23.9318 108H23.9316V110ZM9.08789 96.5439L11.0879 96.544V96.5439H9.08789ZM9.08789 78.4561H11.0879V78.456L9.08789 78.4561ZM9.08789 59.8184H11.0879V59.8183L9.08789 59.8184ZM9.08789 41.1816L11.0879 41.1818V41.1816H9.08789ZM9.08789 22.5439L11.0879 22.544V22.5439H9.08789ZM3.54395 11.0879V13.0879H3.544L3.54395 11.0879ZM11.0879 3.54395L13.0879 3.544V3.54395H11.0879ZM3.74126 15.3261L3.15962 17.2397L3.74126 15.3261ZM3.7578 33.9689L3.17173 35.8811L3.7578 33.9689ZM3.75828 48.3924L4.3443 50.3046L3.75828 48.3924ZM3.75827 67.0301L3.17219 65.1179L3.75827 67.0301ZM3.75828 71.2443L4.34439 69.3322L3.75828 71.2443ZM3.82024 103.736L3.21759 101.829L3.82024 103.736ZM17.0086 114.546L15.1734 113.751L17.0086 114.546ZM51.187 114.424L49.3663 115.252L51.187 114.424ZM91.9624 114.424L93.7831 113.596L91.9624 114.424ZM112.349 114.423L110.528 115.251L112.349 114.423ZM119.001 114.423L117.18 113.596L119.001 114.423ZM153.125 114.424L154.945 113.596L153.125 114.424ZM159.775 114.424L157.954 113.596L159.775 114.424ZM180.163 114.424L181.983 115.252L180.163 114.424ZM193.899 114.423L192.078 115.251L193.899 114.423ZM214.287 114.424L212.466 115.252L214.287 114.424ZM220.937 114.424L219.116 113.596L220.937 114.424ZM282.1 114.423L280.28 113.596L282.1 114.423ZM3.75781 29.7558L4.34378 31.668L3.75781 29.7558ZM3.75828 52.6067L4.34439 50.6945L3.75828 52.6067ZM275.449 114.423L273.628 115.251L275.449 114.423ZM3.49359 89.2555L2.9781 91.1879L3.49359 89.2555ZM30.7992 114.423L32.6198 113.596L30.7992 114.423ZM37.4508 114.423L35.6301 113.596L37.4508 114.423ZM71.5747 114.424L69.754 115.252V115.252L71.5747 114.424ZM132.737 114.424L130.916 115.252L132.737 114.424ZM139.387 114.424L137.567 113.596L139.387 114.424ZM173.512 114.424L171.692 115.252L173.512 114.424ZM261.712 114.424L263.533 115.252L261.712 114.424ZM241.325 114.424L239.504 113.596L241.325 114.424ZM200.55 114.423L198.73 113.596L200.55 114.423ZM295.872 114.503L294.042 115.31L295.872 114.503ZM255.062 114.424L253.241 115.252L255.062 114.424ZM234.674 114.424L236.495 113.596L234.674 114.424ZM16.3877 3.54395L14.3877 3.544C14.3878 8.81468 18.6608 13.0879 23.9316 13.0879V11.0879V9.08789C20.87 9.08789 18.3878 6.60562 18.3877 3.54389L16.3877 3.54395ZM23.9316 11.0879L23.9318 13.0879C29.2025 13.0876 33.4745 8.81431 33.4746 3.544L31.4746 3.54395L29.4746 3.54389C29.4745 6.6057 26.9928 9.08772 23.9315 9.08789L23.9316 11.0879ZM32.8703 2V4H35.3788V2V0H32.8703V2ZM36.7754 3.54395L34.7754 3.544C34.7755 8.81432 39.0474 13.0877 44.3183 13.0879L44.3184 11.0879L44.3184 9.08789C41.2572 9.08777 38.7755 6.60579 38.7754 3.54389L36.7754 3.54395ZM44.3184 11.0879V13.0879C49.5892 13.0879 53.8622 8.81468 53.8623 3.544L51.8623 3.54395L49.8623 3.54389C49.8622 6.60562 47.38 9.08789 44.3184 9.08789V11.0879ZM53.258 2V4H55.7664V2V0H53.258V2ZM57.1621 3.54395L55.1621 3.544C55.1622 8.81468 59.4352 13.0879 64.706 13.0879L64.7061 11.0879L64.7061 9.08789C61.6445 9.08787 59.1622 6.60559 59.1621 3.54389L57.1621 3.54395ZM64.7061 11.0879V13.0879C69.9769 13.0879 74.2499 8.81468 74.25 3.544L72.25 3.54395L70.25 3.54389C70.2499 6.60562 67.7677 9.08789 64.7061 9.08789V11.0879ZM73.6457 2V4H76.1541V2V0L73.6457 0V2ZM77.5498 3.54395L75.5498 3.544C75.5499 8.81468 79.8229 13.0879 85.0938 13.0879V11.0879V9.08789C82.0321 9.08789 79.5499 6.60562 79.5498 3.54389L77.5498 3.54395ZM85.0938 11.0879L85.0938 13.0879C90.3645 13.0878 94.6376 8.81467 94.6377 3.544L92.6377 3.54395L90.6377 3.54389C90.6376 6.60551 88.1553 9.08781 85.0937 9.08789L85.0938 11.0879ZM94.0334 2V4H96.5418V2V0H94.0334V2ZM97.9375 3.54395L95.9375 3.544C95.9376 8.81468 100.211 13.0879 105.481 13.0879V11.0879V9.08789C102.42 9.08789 99.9376 6.60562 99.9375 3.54389L97.9375 3.54395ZM105.481 11.0879L105.482 13.0879C110.752 13.0876 115.024 8.81431 115.024 3.544L113.024 3.54395L111.024 3.54389C111.024 6.6057 108.543 9.08772 105.481 9.08789L105.481 11.0879ZM114.42 2V4H116.929V2V0H114.42V2ZM118.325 3.54395L116.325 3.544C116.325 8.81432 120.597 13.0877 125.868 13.0879L125.868 11.0879L125.868 9.08789C122.807 9.08777 120.325 6.60579 120.325 3.54389L118.325 3.54395ZM125.868 11.0879V13.0879C131.139 13.0879 135.412 8.81468 135.412 3.544L133.412 3.54395L131.412 3.54389C131.412 6.60562 128.93 9.08789 125.868 9.08789V11.0879ZM134.808 2V4H137.316V2V0H134.808V2ZM138.712 3.54395L136.712 3.544C136.712 8.81468 140.985 13.0879 146.256 13.0879L146.256 11.0879L146.256 9.08789C143.194 9.08787 140.712 6.60559 140.712 3.54389L138.712 3.54395ZM146.256 11.0879V13.0879C151.527 13.0879 155.8 8.81468 155.8 3.544L153.8 3.54395L151.8 3.54389C151.8 6.60562 149.317 9.08789 146.256 9.08789V11.0879ZM155.195 2V4H157.704V2V0H155.195V2ZM159.1 3.54395L157.1 3.544C157.1 8.81468 161.373 13.0879 166.644 13.0879V11.0879V9.08789C163.582 9.08789 161.1 6.60562 161.1 3.54389L159.1 3.54395ZM166.644 11.0879L166.644 13.0879C171.914 13.0878 176.187 8.81467 176.188 3.544L174.188 3.54395L172.188 3.54389C172.187 6.60551 169.705 9.08781 166.644 9.08789L166.644 11.0879ZM175.583 2V4L178.092 4V2V0H175.583V2ZM179.487 3.54395L177.487 3.544C177.487 8.81468 181.76 13.0879 187.031 13.0879V11.0879V9.08789C183.97 9.08789 181.487 6.60562 181.487 3.54389L179.487 3.54395ZM187.031 11.0879L187.031 13.0879C192.302 13.0876 196.574 8.81431 196.574 3.544L194.574 3.54395L192.574 3.54389C192.574 6.6057 190.092 9.08772 187.031 9.08789L187.031 11.0879ZM195.97 2V4H198.478V2V0H195.97V2ZM199.875 3.54395L197.875 3.544C197.875 8.81432 202.147 13.0877 207.418 13.0879L207.418 11.0879L207.418 9.08789C204.357 9.08777 201.875 6.60579 201.875 3.54389L199.875 3.54395ZM207.418 11.0879V13.0879C212.689 13.0879 216.962 8.81468 216.962 3.544L214.962 3.54395L212.962 3.54389C212.962 6.60562 210.48 9.08789 207.418 9.08789V11.0879ZM216.358 2V4H218.866V2V0L216.358 0V2ZM220.262 3.54395L218.262 3.544C218.262 8.81468 222.535 13.0879 227.806 13.0879L227.806 11.0879L227.806 9.08789C224.744 9.08787 222.262 6.60559 222.262 3.54389L220.262 3.54395ZM227.806 11.0879V13.0879C233.077 13.0879 237.349 8.81468 237.35 3.544L235.35 3.54395L233.35 3.54389C233.35 6.60562 230.867 9.08789 227.806 9.08789V11.0879ZM236.745 2V4H239.254V2V0H236.745V2ZM240.649 3.54395L238.649 3.544C238.65 8.81468 242.923 13.0879 248.193 13.0879V11.0879V9.08789C245.132 9.08789 242.649 6.60562 242.649 3.54389L240.649 3.54395ZM248.193 11.0879L248.193 13.0879C253.464 13.0878 257.737 8.81467 257.737 3.544L255.737 3.54395L253.737 3.54389C253.737 6.60551 251.255 9.08781 248.193 9.08789L248.193 11.0879ZM257.133 2V4H259.641V2V0H257.133V2ZM261.037 3.54395L259.037 3.544C259.037 8.81468 263.31 13.0879 268.581 13.0879V11.0879V9.08789C265.519 9.08789 263.037 6.60562 263.037 3.54389L261.037 3.54395ZM268.581 11.0879L268.581 13.0879C273.852 13.0876 278.124 8.81431 278.124 3.544L276.124 3.54395L274.124 3.54389C274.124 6.6057 271.642 9.08772 268.581 9.08789L268.581 11.0879ZM277.52 2V4H280.028V2V0H277.52V2ZM281.425 3.54395L279.425 3.544C279.425 8.81432 283.697 13.0877 288.968 13.0879L288.968 11.0879L288.968 9.08789C285.907 9.08777 283.425 6.60579 283.425 3.54389L281.425 3.54395ZM288.968 11.0879V13.0879C294.239 13.0879 298.512 8.81468 298.512 3.544L296.512 3.54395L294.512 3.54389C294.512 6.60562 292.029 9.08789 288.968 9.08789V11.0879ZM297.907 2V4H300.416V2V0L297.907 0V2ZM301.812 3.54395L299.812 3.544C299.812 8.81468 304.085 13.0879 309.355 13.0879V11.0879V9.08789C306.294 9.08787 303.812 6.60559 303.812 3.54389L301.812 3.54395ZM311 12.5632H309V14.5583H311H313V12.5632H311ZM310.544 15V13C305.273 13 301 17.2731 301 22.5439H303H305C305 19.4822 307.482 17 310.544 17V15ZM303 22.5439L301 22.544C301 27.8147 305.273 32.0879 310.544 32.0879V30.0879V28.0879C307.482 28.0879 305 25.6056 305 22.5439L303 22.5439ZM311 30.5287H309V33.196H311H313V30.5287H311ZM310.544 33.6377V31.6377C305.273 31.6377 301 35.9108 301 41.1816H303H305C305 38.1199 307.482 35.6377 310.544 35.6377V33.6377ZM303 41.1816L301 41.1818C301 46.4526 305.273 50.7246 310.544 50.7246V48.7246V46.7246C307.482 46.7246 305 44.2429 305 41.1815L303 41.1816ZM311 49.1654H309V51.8337H311H313V49.1654H311ZM310.544 52.2754V50.2754C305.273 50.2754 301 54.5473 301 59.8183L303 59.8184L305 59.8184C305 56.757 307.482 54.2754 310.544 54.2754V52.2754ZM303 59.8184H301C301 65.0892 305.273 69.3623 310.544 69.3623V67.3623V65.3623C307.482 65.3623 305 62.8801 305 59.8184H303ZM311 67.8031H309V70.4714H311H313V67.8031H311ZM310.544 70.9131V68.9131C305.273 68.9131 301 73.185 301 78.456L303 78.4561L305 78.4561C305 75.3947 307.482 72.9131 310.544 72.9131V70.9131ZM303 78.4561H301C301 83.7269 305.273 88 310.544 88V86V84C307.482 84 305 81.5178 305 78.4561H303ZM311 86.4408H309V88.5583H311H313V86.4408H311ZM310.544 89V87C305.273 87 301 91.2731 301 96.5439H303H305C305 93.4822 307.482 91 310.544 91V89ZM303 96.5439L301 96.544C301 101.815 305.273 106.088 310.544 106.088V104.088V102.088C307.482 102.088 305 99.6056 305 96.5439L303 96.5439ZM311 104.529H309V107.514H311H313V104.529H311ZM310.5 108V106C304.701 106 300 110.701 300 116.5H302H304C304 112.91 306.91 110 310.5 110V108ZM301.515 117V115H299.075V117V119H301.515V117ZM295.872 114.503L297.702 113.697C296.225 110.346 292.873 108 288.968 108V110V112C291.231 112 293.181 113.357 294.042 115.31L295.872 114.503ZM288.968 110L288.968 108C285.101 108 281.778 110.299 280.28 113.596L282.1 114.423L283.921 115.251C284.795 113.329 286.728 112 288.968 112L288.968 110ZM275.449 114.423L277.269 113.596C275.771 110.299 272.447 108 268.581 108L268.581 110L268.581 112C270.821 112 272.754 113.329 273.628 115.251L275.449 114.423ZM268.581 110V108C264.714 108 261.391 110.299 259.892 113.596L261.712 114.424L263.533 115.252C264.407 113.33 266.34 112 268.581 112V110ZM255.062 114.424L256.883 113.596C255.384 110.299 252.06 108 248.193 108L248.193 110L248.193 112C250.434 112 252.367 113.33 253.241 115.252L255.062 114.424ZM248.193 110V108C244.327 108 241.003 110.299 239.504 113.596L241.325 114.424L243.145 115.252C244.019 113.33 245.953 112 248.193 112V110ZM234.674 114.424L236.495 113.596C234.996 110.299 231.672 108 227.806 108V110V112C230.046 112 231.98 113.33 232.854 115.252L234.674 114.424ZM227.806 110L227.806 108C223.939 108 220.615 110.299 219.116 113.596L220.937 114.424L222.758 115.252C223.632 113.33 225.565 112 227.806 112L227.806 110ZM214.287 114.424L216.107 113.596C214.608 110.299 211.285 108 207.418 108V110V112C209.659 112 211.592 113.33 212.466 115.252L214.287 114.424ZM207.418 110L207.418 108C203.552 108 200.228 110.299 198.73 113.596L200.55 114.423L202.371 115.251C203.245 113.329 205.178 112 207.418 112L207.418 110ZM193.899 114.423L195.719 113.596C194.221 110.299 190.898 108 187.031 108L187.031 110L187.031 112C189.271 112 191.204 113.329 192.078 115.251L193.899 114.423ZM187.031 110V108C183.165 108 179.841 110.299 178.342 113.596L180.163 114.424L181.983 115.252C182.857 113.33 184.791 112 187.031 112V110ZM173.512 114.424L175.333 113.596C173.834 110.299 170.51 108 166.644 108L166.644 110L166.644 112C168.884 112 170.818 113.33 171.692 115.252L173.512 114.424ZM166.644 110V108C162.777 108 159.453 110.299 157.954 113.596L159.775 114.424L161.596 115.252C162.469 113.33 164.403 112 166.644 112V110ZM153.125 114.424L154.945 113.596C153.446 110.299 150.122 108 146.256 108V110V112C148.497 112 150.43 113.33 151.304 115.252L153.125 114.424ZM146.256 110L146.256 108C142.389 108 139.065 110.299 137.567 113.596L139.387 114.424L141.208 115.252C142.082 113.33 144.015 112 146.256 112L146.256 110ZM132.737 114.424L134.558 113.596C133.059 110.299 129.735 108 125.868 108V110V112C128.109 112 130.042 113.33 130.916 115.252L132.737 114.424ZM125.868 110L125.868 108C122.002 108 118.679 110.299 117.18 113.596L119.001 114.423L120.821 115.251C121.695 113.329 123.628 112 125.868 112L125.868 110ZM112.349 114.423L114.17 113.596C112.671 110.299 109.348 108 105.482 108L105.481 110L105.481 112C107.722 112 109.655 113.329 110.528 115.251L112.349 114.423ZM105.481 110V108C101.615 108 98.2909 110.299 96.7921 113.596L98.6128 114.424L100.433 115.252C101.307 113.33 103.241 112 105.481 112V110ZM91.9624 114.424L93.7831 113.596C92.2842 110.299 88.9603 108 85.0938 108L85.0938 110L85.0937 112C87.3343 112 89.2679 113.33 90.1417 115.252L91.9624 114.424ZM85.0938 110V108C81.2271 108 77.9033 110.299 76.4044 113.596L78.2251 114.424L80.0458 115.252C80.9196 113.33 82.8531 112 85.0938 112V110ZM71.5747 114.424L73.3954 113.596C71.8966 110.299 68.5727 108 64.7061 108V110V112C66.9467 112 68.8802 113.33 69.754 115.252L71.5747 114.424ZM64.7061 110L64.706 108C60.8395 108 57.5156 110.299 56.0167 113.596L57.8374 114.424L59.6581 115.252C60.5319 113.33 62.4654 112 64.7061 112L64.7061 110ZM51.187 114.424L53.0077 113.596C51.5089 110.299 48.185 108 44.3184 108V110V112C46.559 112 48.4925 113.33 49.3663 115.252L51.187 114.424ZM44.3184 110L44.3183 108C40.452 108 37.1288 110.299 35.6301 113.596L37.4508 114.423L39.2715 115.251C40.1452 113.329 42.0781 112 44.3184 112L44.3184 110ZM30.7992 114.423L32.6198 113.596C31.1211 110.299 27.798 108 23.9318 108L23.9316 110L23.9315 112C26.1718 112 28.1047 113.329 28.9785 115.251L30.7992 114.423ZM23.9316 110V108C20.0048 108 16.6378 110.371 15.1734 113.751L17.0086 114.546L18.8438 115.342C19.6973 113.371 21.6561 112 23.9316 112V110ZM13.8717 117V115H11.4847V117V119H13.8717V117ZM11 116.5H13C13 110.701 8.29899 106 2.5 106V108V110C6.08985 110 9 112.91 9 116.5H11ZM2 107.514H4L4 105.928H2H0V107.514H2ZM3.82024 103.736L4.4229 105.643C8.28403 104.423 11.0878 100.814 11.0879 96.544L9.08789 96.5439L7.08789 96.5439C7.08783 99.019 5.46384 101.119 3.21759 101.829L3.82024 103.736ZM9.08789 96.5439H11.0879C11.0879 92.123 8.08344 88.4099 4.00908 87.323L3.49359 89.2555L2.9781 91.1879C5.34627 91.8196 7.08789 93.9809 7.08789 96.5439H9.08789ZM3.49358 85.7436L4.00898 87.6761C8.08318 86.5894 11.0879 82.8772 11.0879 78.4561H9.08789H7.08789C7.08789 81.0189 5.34649 83.1795 2.97819 83.8111L3.49358 85.7436ZM9.08789 78.4561L11.0879 78.456C11.0877 74.1568 8.24616 70.5281 4.34439 69.3322L3.75828 71.2443L3.17216 73.1565C5.44166 73.8522 7.0878 75.9643 7.08789 78.4561L9.08789 78.4561ZM3.75827 67.0301L4.34436 68.9423C8.24619 67.7464 11.0879 64.1178 11.0879 59.8184H9.08789H7.08789C7.08789 62.3102 5.44179 64.4222 3.17219 65.1179L3.75827 67.0301ZM9.08789 59.8184L11.0879 59.8183C11.0877 55.5191 8.24616 51.8904 4.34439 50.6945L3.75828 52.6067L3.17216 54.5188C5.44167 55.2145 7.0878 57.3266 7.08789 59.8184L9.08789 59.8184ZM3.75828 48.3924L4.3443 50.3046C8.2459 49.1089 11.0876 45.481 11.0879 41.1818L9.08789 41.1816L7.08789 41.1815C7.08775 43.6731 5.4418 45.7847 3.17225 46.4802L3.75828 48.3924ZM9.08789 41.1816H11.0879C11.0879 36.8822 8.24613 33.2527 4.34387 32.0567L3.7578 33.9689L3.17173 35.8811C5.44142 36.5767 7.08789 38.6894 7.08789 41.1816H9.08789ZM3.75781 29.7558L4.34378 31.668C8.24588 30.4723 11.0878 26.8435 11.0879 22.544L9.08789 22.5439L7.08789 22.5439C7.08783 25.0359 5.44154 27.148 3.17183 27.8436L3.75781 29.7558ZM9.08789 22.5439H11.0879C11.0879 18.2368 8.23601 14.602 4.32291 13.4126L3.74126 15.3261L3.15962 17.2397C5.4355 17.9314 7.08789 20.0473 7.08789 22.5439H9.08789ZM2 13.2419H4V12.4836H2H0V13.2419H2ZM3.54395 11.0879L3.544 13.0879C8.81467 13.0878 13.0878 8.81467 13.0879 3.544L11.0879 3.54395L9.08789 3.54389C9.08781 6.60551 6.60551 9.08781 3.54389 9.08789L3.54395 11.0879ZM12.4836 2V4H14.992V2V0H12.4836V2ZM2 12.4836H4C4 12.7354 3.87552 12.9141 3.78416 12.9936C3.70532 13.0622 3.62481 13.0879 3.54395 13.0879V11.0879V9.08789C1.90731 9.08789 0 10.325 0 12.4836H2ZM3.74126 15.3261L4.32291 13.4126C4.17636 13.368 4.06923 13.2896 4.01669 13.2297C3.99356 13.2033 3.98962 13.1906 3.99201 13.1965C3.9954 13.2049 4 13.2225 4 13.2419H2H0C0 15.3761 1.64038 16.7779 3.15962 17.2397L3.74126 15.3261ZM3.7578 33.9689L4.34387 32.0567C4.19103 32.0098 4.07848 31.9277 4.0222 31.8635C3.97493 31.8096 4 31.8119 4 31.8623H2H0C0 34.0066 1.64849 35.4142 3.17173 35.8811L3.7578 33.9689ZM2 50.4995H4C4 50.5498 3.97499 50.5519 4.02233 50.4979C4.07869 50.4337 4.19134 50.3515 4.3443 50.3046L3.75828 48.3924L3.17225 46.4802C1.64869 46.9471 0 48.355 0 50.4995H2ZM2 69.1372H4C4 69.1875 3.97499 69.1896 4.02234 69.1356C4.0787 69.0713 4.19138 68.9892 4.34436 68.9423L3.75827 67.0301L3.17219 65.1179C1.6487 65.5848 0 66.9927 0 69.1372H2ZM3.75828 71.2443L4.34439 69.3322C4.1914 69.2853 4.07871 69.2031 4.02234 69.1388C3.97498 69.0848 4 69.0869 4 69.1372H2H0C0 71.2817 1.64871 72.6896 3.17216 73.1565L3.75828 71.2443ZM2 105.928H4C4 105.961 3.9817 105.946 4.04298 105.876C4.11338 105.795 4.2464 105.699 4.4229 105.643L3.82024 103.736L3.21759 101.829C1.67947 102.315 0 103.745 0 105.928H2ZM2.5 108V106C3.25649 106 4 106.606 4 107.514H2H0C0 108.965 1.20055 110 2.5 110V108ZM11.4847 117V115C12.3978 115 13 115.749 13 116.5H11H9C9 117.794 10.0285 119 11.4847 119V117ZM17.0086 114.546L15.1734 113.751C14.9919 114.17 14.7367 114.515 14.476 114.734C14.2265 114.944 14.0256 115 13.8717 115V117V119C16.4408 119 18.1215 117.009 18.8438 115.342L17.0086 114.546ZM54.5122 117V115C54.3229 115 54.0868 114.93 53.8018 114.692C53.5057 114.444 53.2183 114.059 53.0077 113.596L51.187 114.424L49.3663 115.252C50.1352 116.943 51.8673 119 54.5122 119V117ZM57.8374 114.424L56.0167 113.596C55.8062 114.059 55.5187 114.444 55.2226 114.692C54.9376 114.93 54.7015 115 54.5122 115V117V119C57.1571 119 58.8892 116.943 59.6581 115.252L57.8374 114.424ZM78.2251 114.424L76.4044 113.596C76.1939 114.059 75.9064 114.444 75.6103 114.692C75.3253 114.93 75.0892 115 74.8999 115V117V119C77.5448 119 79.2769 116.943 80.0458 115.252L78.2251 114.424ZM95.2876 117V115C95.0983 115 94.8622 114.93 94.5772 114.692C94.2811 114.444 93.9936 114.059 93.7831 113.596L91.9624 114.424L90.1417 115.252C90.9106 116.943 92.6427 119 95.2876 119V117ZM115.675 117V115C115.485 115 115.249 114.93 114.964 114.691C114.668 114.444 114.38 114.059 114.17 113.596L112.349 114.423L110.528 115.251C111.297 116.943 113.03 119 115.675 119V117ZM119.001 114.423L117.18 113.596C116.969 114.059 116.682 114.444 116.386 114.691C116.1 114.93 115.864 115 115.675 115V117V119C118.32 119 120.052 116.943 120.821 115.251L119.001 114.423ZM156.45 117V115C156.26 115 156.024 114.93 155.739 114.692C155.443 114.444 155.156 114.059 154.945 113.596L153.125 114.424L151.304 115.252C152.073 116.943 153.805 119 156.45 119V117ZM159.775 114.424L157.954 113.596C157.744 114.059 157.456 114.444 157.16 114.692C156.875 114.93 156.639 115 156.45 115V117V119C159.095 119 160.827 116.943 161.596 115.252L159.775 114.424ZM180.163 114.424L178.342 113.596C178.131 114.059 177.844 114.444 177.548 114.692C177.263 114.93 177.027 115 176.837 115V117V119C179.482 119 181.214 116.943 181.983 115.252L180.163 114.424ZM197.225 117V115C197.035 115 196.799 114.93 196.514 114.691C196.218 114.444 195.93 114.059 195.719 113.596L193.899 114.423L192.078 115.251C192.847 116.943 194.579 119 197.225 119V117ZM217.612 117V115C217.422 115 217.186 114.93 216.901 114.692C216.605 114.444 216.318 114.059 216.107 113.596L214.287 114.424L212.466 115.252C213.235 116.943 214.967 119 217.612 119V117ZM220.937 114.424L219.116 113.596C218.906 114.059 218.618 114.444 218.322 114.692C218.037 114.93 217.801 115 217.612 115V117V119C220.257 119 221.989 116.943 222.758 115.252L220.937 114.424ZM282.1 114.423L280.28 113.596C280.069 114.059 279.781 114.444 279.485 114.691C279.2 114.93 278.964 115 278.774 115V117V119C281.42 119 283.152 116.943 283.921 115.251L282.1 114.423ZM310.544 86L310.544 88C309.777 88 309 87.3855 309 86.4408H311H313C313 85.001 311.806 84 310.544 84L310.544 86ZM311 70.4714H309C309 69.5321 309.771 68.9131 310.544 68.9131L310.544 70.9131L310.544 72.9131C311.812 72.9131 313 71.9057 313 70.4714H311ZM310.544 67.3623L310.544 69.3623C309.777 69.3623 309 68.7478 309 67.8031H311H313C313 66.3633 311.806 65.3623 310.544 65.3623L310.544 67.3623ZM311 51.8337H309C309 50.8944 309.771 50.2754 310.544 50.2754L310.544 52.2754L310.544 54.2754C311.812 54.2754 313 53.268 313 51.8337H311ZM310.544 48.7246L310.544 50.7246C309.777 50.7246 309 50.1101 309 49.1654H311H313C313 47.7256 311.806 46.7246 310.544 46.7246L310.544 48.7246ZM311 33.196H309C309 32.2567 309.771 31.6377 310.544 31.6377L310.544 33.6377L310.544 35.6377C311.812 35.6377 313 34.6303 313 33.196H311ZM310.544 30.0879L310.544 32.0879C309.777 32.0879 309 31.4734 309 30.5287H311H313C313 29.0889 311.806 28.0879 310.544 28.0879L310.544 30.0879ZM311 14.5583H309C309 13.619 309.771 13 310.544 13L310.544 15L310.544 17C311.812 17 313 15.9926 313 14.5583H311ZM309.355 11.0879V13.0879C309.304 13.0879 309.252 13.0738 309.192 13.022C309.118 12.9587 309 12.7982 309 12.5632H311H313C313 10.3379 311.02 9.08789 309.355 9.08789V11.0879ZM11.0879 3.54395H13.0879C13.0879 3.62481 13.0622 3.70532 12.9936 3.78416C12.9141 3.87552 12.7354 4 12.4836 4V2V0C10.325 0 9.08789 1.90731 9.08789 3.54395H11.0879ZM300.416 2V4C300.164 4 299.985 3.87552 299.906 3.78416C299.837 3.70532 299.812 3.62482 299.812 3.54395H301.812H303.812C303.812 1.90731 302.574 0 300.416 0V2ZM296.512 3.54395L298.512 3.54395C298.512 3.62482 298.486 3.70532 298.417 3.78416C298.338 3.87551 298.159 4 297.907 4V2V0C295.749 0 294.512 1.90731 294.512 3.54395H296.512ZM280.028 2V4C279.777 4 279.598 3.8757 279.519 3.78484C279.451 3.70634 279.425 3.62571 279.425 3.54395H281.425L283.425 3.54395C283.425 1.9056 282.185 0 280.028 0V2ZM2 31.8623H4C4 31.9127 3.97493 31.915 4.02219 31.8611C4.07845 31.7969 4.19097 31.7149 4.34378 31.668L3.75781 29.7558L3.17183 27.8436C1.64848 28.3104 0 29.7181 0 31.8623H2ZM276.124 3.54395H278.124C278.124 3.62482 278.098 3.70533 278.03 3.78416C277.95 3.87551 277.772 4 277.52 4V2V0C275.361 0 274.124 1.90731 274.124 3.54395H276.124ZM3.75828 52.6067L4.34439 50.6945C4.1914 50.6476 4.07872 50.5654 4.02235 50.5011C3.97498 50.4471 4 50.4492 4 50.4995H2H0C0 52.644 1.64871 54.0519 3.17216 54.5188L3.75828 52.6067ZM259.641 2V4C259.39 4 259.211 3.87551 259.131 3.78416C259.063 3.70533 259.037 3.62482 259.037 3.54395H261.037H263.037C263.037 1.90731 261.8 0 259.641 0V2ZM51.8623 3.54395H53.8623C53.8623 3.62482 53.8367 3.70532 53.7681 3.78416C53.6885 3.87551 53.5099 4 53.258 4V2V0C51.0994 0 49.8623 1.90731 49.8623 3.54395H51.8623ZM278.774 117V115C278.585 115 278.349 114.93 278.064 114.691C277.767 114.444 277.48 114.059 277.269 113.596L275.449 114.423L273.628 115.251C274.397 116.943 276.129 119 278.774 119V117ZM255.737 3.54395H257.737C257.737 3.62481 257.712 3.70532 257.643 3.78416C257.564 3.87552 257.385 4 257.133 4V2V0C254.974 0 253.737 1.90731 253.737 3.54395H255.737ZM3.49359 89.2555L4.00908 87.323C3.98751 87.3173 3.9673 87.3084 3.9513 87.2987C3.93513 87.2888 3.93079 87.2828 3.93489 87.2875C3.93938 87.2925 3.95593 87.3128 3.97183 87.3521C3.98863 87.3937 4 87.4453 4 87.4995H2H0C0 89.4821 1.51932 90.7987 2.9781 91.1879L3.49359 89.2555ZM235.35 3.54395H237.35C237.35 3.62482 237.324 3.70532 237.255 3.78416C237.176 3.87552 236.997 4 236.745 4V2V0C234.587 0 233.35 1.90731 233.35 3.54395L235.35 3.54395ZM214.962 3.54395H216.962C216.962 3.62482 216.936 3.70532 216.868 3.78416C216.788 3.87551 216.609 4 216.358 4V2V0C214.199 0 212.962 1.90731 212.962 3.54395H214.962ZM34.125 117V115C33.9355 115 33.6994 114.93 33.4142 114.691C33.118 114.444 32.8305 114.059 32.6198 113.596L30.7992 114.423L28.9785 115.251C29.7475 116.943 31.4798 119 34.125 119V117ZM198.478 2V4C198.227 4 198.049 3.8757 197.969 3.78484C197.901 3.70634 197.875 3.62571 197.875 3.54395H199.875H201.875C201.875 1.9056 200.635 0 198.478 0V2ZM37.4508 114.423L35.6301 113.596C35.4195 114.059 35.132 114.444 34.8358 114.691C34.5506 114.93 34.3145 115 34.125 115V117V119C36.7702 119 38.5025 116.943 39.2715 115.251L37.4508 114.423ZM194.574 3.54395H196.574C196.574 3.62482 196.549 3.70533 196.48 3.78416C196.4 3.87551 196.222 4 195.97 4V2V0C193.811 0 192.574 1.90731 192.574 3.54395H194.574ZM178.092 2V4C177.84 4 177.661 3.87551 177.582 3.78416C177.513 3.70533 177.487 3.62482 177.487 3.54395H179.487H181.487C181.487 1.90731 180.25 0 178.092 0V2ZM74.8999 117V115C74.7106 115 74.4745 114.93 74.1895 114.692C73.8934 114.444 73.606 114.059 73.3954 113.596L71.5747 114.424L69.754 115.252C70.5229 116.943 72.255 119 74.8999 119V117ZM174.188 3.54395H176.188C176.188 3.62481 176.162 3.70532 176.093 3.78416C176.014 3.87552 175.835 4 175.583 4V2V0C173.425 0 172.188 1.90731 172.188 3.54395H174.188ZM98.6128 114.424L96.7921 113.596C96.5816 114.059 96.2941 114.444 95.998 114.692C95.713 114.93 95.4769 115 95.2876 115V117V119C97.9325 119 99.6646 116.943 100.433 115.252L98.6128 114.424ZM157.704 2V4C157.452 4 157.273 3.87551 157.194 3.78416C157.125 3.70532 157.1 3.62482 157.1 3.54395H159.1H161.1C161.1 1.90731 159.863 0 157.704 0V2ZM153.8 3.54395L155.8 3.54395C155.8 3.62482 155.774 3.70532 155.706 3.78416C155.626 3.87552 155.447 4 155.195 4V2V0C153.037 0 151.8 1.90731 151.8 3.54395H153.8ZM136.062 117V115C135.873 115 135.637 114.93 135.352 114.692C135.056 114.444 134.768 114.059 134.558 113.596L132.737 114.424L130.916 115.252C131.685 116.943 133.417 119 136.062 119V117ZM137.316 2V4C137.064 4 136.886 3.87552 136.806 3.78416C136.738 3.70532 136.712 3.62482 136.712 3.54395H138.712H140.712C140.712 1.90731 139.475 0 137.316 0V2ZM139.387 114.424L137.567 113.596C137.356 114.059 137.068 114.444 136.772 114.692C136.487 114.93 136.251 115 136.062 115V117V119C138.707 119 140.439 116.943 141.208 115.252L139.387 114.424ZM133.412 3.54395H135.412C135.412 3.62482 135.386 3.70532 135.318 3.78416C135.238 3.87551 135.06 4 134.808 4V2V0C132.649 0 131.412 1.90731 131.412 3.54395H133.412ZM176.837 117V115C176.648 115 176.412 114.93 176.127 114.692C175.831 114.444 175.543 114.059 175.333 113.596L173.512 114.424L171.692 115.252C172.46 116.943 174.193 119 176.837 119V117ZM113.024 3.54395H115.024C115.024 3.62482 114.999 3.70533 114.93 3.78416C114.851 3.87551 114.672 4 114.42 4V2V0C112.262 0 111.024 1.90731 111.024 3.54395H113.024ZM92.6377 3.54395H94.6377C94.6377 3.62481 94.6121 3.70532 94.5434 3.78416C94.4639 3.87552 94.2853 4 94.0334 4V2V0C91.8748 0 90.6377 1.90731 90.6377 3.54395H92.6377ZM116.929 2V4C116.677 4 116.499 3.8757 116.42 3.78484C116.351 3.70634 116.325 3.62571 116.325 3.54395H118.325H120.325C120.325 1.9056 119.086 0 116.929 0V2ZM261.712 114.424L259.892 113.596C259.681 114.059 259.394 114.444 259.098 114.692C258.813 114.93 258.577 115 258.387 115V117V119C261.032 119 262.764 116.943 263.533 115.252L261.712 114.424ZM241.325 114.424L239.504 113.596C239.293 114.059 239.006 114.444 238.71 114.692C238.425 114.93 238.189 115 238 115V117V119C240.644 119 242.377 116.943 243.145 115.252L241.325 114.424ZM72.25 3.54395H74.25C74.25 3.62482 74.2244 3.70532 74.1557 3.78416C74.0762 3.87552 73.8976 4 73.6457 4V2V0C71.4871 0 70.25 1.90731 70.25 3.54395H72.25ZM200.55 114.423L198.73 113.596C198.519 114.059 198.232 114.444 197.935 114.691C197.65 114.93 197.414 115 197.225 115V117V119C199.87 119 201.602 116.943 202.371 115.251L200.55 114.423ZM96.5418 2V4C96.2899 4 96.1113 3.87551 96.0318 3.78416C95.9632 3.70533 95.9375 3.62482 95.9375 3.54395H97.9375H99.9375C99.9375 1.90731 98.7004 0 96.5418 0V2ZM35.3788 2V4C35.1271 4 34.9489 3.8757 34.8698 3.78484C34.8014 3.70634 34.7754 3.62571 34.7754 3.54395H36.7754H38.7754C38.7754 1.9056 37.5358 0 35.3788 0V2ZM302 116.5H300C300 115.749 300.602 115 301.515 115V117V119C302.971 119 304 117.794 304 116.5H302ZM2 87.4995H4C4 87.5537 3.98863 87.6053 3.97183 87.6469C3.95593 87.6862 3.93938 87.7065 3.93488 87.7116C3.93077 87.7162 3.9351 87.7102 3.95125 87.7004C3.96724 87.6907 3.98743 87.6818 4.00898 87.6761L3.49358 85.7436L2.97819 83.8111C1.51929 84.2002 0 85.5169 0 87.4995H2ZM239.254 2V4C239.002 4 238.823 3.87551 238.744 3.78416C238.675 3.70532 238.649 3.62482 238.649 3.54395H240.649H242.649C242.649 1.90731 241.412 0 239.254 0V2ZM299.075 117V115C298.908 115 298.695 114.939 298.433 114.719C298.16 114.49 297.894 114.131 297.702 113.697L295.872 114.503L294.042 115.31C294.78 116.986 296.479 119 299.075 119V117ZM258.387 117V115C258.198 115 257.962 114.93 257.677 114.692C257.381 114.444 257.093 114.059 256.883 113.596L255.062 114.424L253.241 115.252C254.01 116.943 255.742 119 258.387 119V117ZM238 117V115C237.81 115 237.574 114.93 237.289 114.692C236.993 114.444 236.706 114.059 236.495 113.596L234.674 114.424L232.854 115.252C233.622 116.943 235.355 119 238 119V117ZM76.1541 2V4C75.9022 4 75.7236 3.87551 75.6441 3.78416C75.5755 3.70532 75.5498 3.62482 75.5498 3.54395H77.5498H79.5498C79.5498 1.90731 78.3127 0 76.1541 0V2ZM218.866 2V4C218.614 4 218.435 3.87552 218.356 3.78416C218.287 3.70532 218.262 3.62482 218.262 3.54395H220.262H222.262C222.262 1.90731 221.025 0 218.866 0V2ZM310.544 104.088L310.544 106.088C309.777 106.088 309 105.473 309 104.529H311H313C313 103.089 311.806 102.088 310.544 102.088L310.544 104.088ZM31.4746 3.54395H33.4746C33.4746 3.62482 33.449 3.70533 33.3804 3.78416C33.3009 3.87551 33.1222 4 32.8703 4V2V0C30.7117 0 29.4746 1.90731 29.4746 3.54395H31.4746ZM55.7664 2V4C55.5145 4 55.3359 3.87552 55.2564 3.78416C55.1878 3.70532 55.1621 3.62482 55.1621 3.54395H57.1621H59.1621C59.1621 1.90731 57.925 0 55.7664 0V2ZM311 107.514H309C309 106.606 309.743 106 310.5 106V108V110C311.799 110 313 108.965 313 107.514H311ZM311 88.5583H309C309 87.619 309.771 87 310.544 87L310.544 89L310.544 91C311.812 91 313 89.9926 313 88.5583H311ZM16.3877 3.54395H18.3877C18.3877 1.90731 17.1506 0 14.992 0V2V4C14.7401 4 14.5615 3.87551 14.4819 3.78416C14.4133 3.70533 14.3877 3.62482 14.3877 3.54395H16.3877Z" fill="black" mask="url(#path-1-outside-1_360_10086)"/>
</svg>
