<svg width="152" height="43" viewBox="0 0 152 43" fill="none" xmlns="http://www.w3.org/2000/svg">
<circle cx="74.1292" cy="21.4797" r="4.73022" fill="black"/>
<path d="M9.24408 0.709526L11.0141 0.917843L11.0302 0.919687L11.0452 0.925909L12.7887 1.64258L12.7961 1.64557L12.803 1.64949L19.2438 5.37824L19.2279 5.52803L19.2277 5.5278L19.2212 5.59993L19.221 5.5997L19.2155 5.67229L19.2106 5.74303L19.2109 5.74326L19.2069 5.81585L19.2072 5.81608L19.2044 5.89097L19.2028 5.96448L19.2023 6.03246L19.2899 6.90145L19.4505 6.38504L19.454 6.37375L19.4595 6.36361L19.7639 5.80248L19.7694 5.79235L19.7766 5.78359L20.1801 5.29482L20.1838 5.29045L20.1877 5.2863L21.8563 3.61791L21.8602 3.61376L21.8646 3.61031L22.3536 3.20681L22.3624 3.19966L22.3723 3.19413L22.9334 2.88949L22.9438 2.88396L22.9548 2.8805L23.5749 2.68809L23.5862 2.68463L23.598 2.68348L24.2637 2.61619L24.2757 2.61504L24.2875 2.61619L24.9532 2.68348L24.9652 2.68463L24.9765 2.68809L25.5966 2.8805L25.6076 2.88396L25.6178 2.88949L26.1789 3.19413L26.189 3.19966L26.1978 3.20681L26.6868 3.61031L26.6956 3.61745L26.7027 3.62621L27.106 4.1152L27.1133 4.12396L27.1186 4.13387L27.4233 4.69499L27.4288 4.70536L27.4323 4.71642L27.6249 5.33653L27.6284 5.34783L27.6295 5.35958L27.6966 6.02532L27.6977 6.0373L27.6966 6.04906L27.6295 6.7148L27.6284 6.72678L27.6249 6.73807L27.4323 7.35819L27.4288 7.36925L27.4233 7.37939L27.1186 7.94051L27.1133 7.95065L27.106 7.9594L26.7027 8.4484L26.699 8.45278L25.0226 10.1292L25.0182 10.1329L24.5292 10.5362L24.5204 10.5436L24.5105 10.5489L23.9492 10.8535L23.939 10.859L23.928 10.8625L23.4113 11.0226L24.2794 11.1102L24.6935 11.0934L25.1051 11.0429L25.5033 10.9609L25.8895 10.8482L26.2635 10.7058L26.622 10.536L26.9649 10.3392L27.2931 10.1156L27.3546 10.0739L32.1821 12.8689L32.189 12.8731L32.1955 12.8779L33.686 14.0338L33.6989 14.0437L33.7085 14.0566L34.7732 15.49L34.7826 15.5024L34.7884 15.5169L35.4272 17.1351L35.4327 17.1491L35.6475 18.8747L35.6493 18.8892L35.6475 18.9037L35.4327 20.6292L35.4272 20.6431L34.7882 22.2614L34.7826 22.276L34.7732 22.2884L33.7085 23.7217L33.7032 23.7287L33.6973 23.7349L32.0233 25.4086L32.0176 25.4132L30.5269 26.5691L30.5204 26.5739L30.5137 26.5778L18.6106 33.4691L18.6103 33.4694L18.602 33.4742H18.6016L18.5933 33.479L18.5928 33.4793L18.5845 33.4841L18.5758 33.489L18.5755 33.4892L18.5672 33.4938L18.567 33.494L18.5585 33.4986L18.55 33.5035L18.5414 33.5081L18.1091 33.7586L18.1038 33.7616L18.0985 33.7641L17.5021 34.0333L17.4913 34.0383L17.4798 34.0409L16.8608 34.1814L16.8495 34.184L16.8378 34.1842L16.2142 34.2006L16.2027 34.201L16.1914 34.1992L15.5805 34.0964L15.5694 34.0943L15.5588 34.0904L14.9784 33.8731L14.9678 33.8692L14.9581 33.8632L14.426 33.5362L14.4161 33.5302L14.4076 33.5221L13.9416 33.0903L13.9329 33.0822L13.9259 33.0725L13.5439 32.5405L13.5404 32.5356L13.5374 32.5306L13.2443 32.0213L13.2413 32.016L13.239 32.0107L12.9705 31.4127L12.9657 31.4019L12.9629 31.3903L12.8231 30.7698L12.8203 30.7585L12.8201 30.7469L12.8037 30.1215L12.8035 30.1102L12.8053 30.0989L12.9079 29.4864L12.9097 29.4751L12.9136 29.4648L13.1302 28.8827L13.1341 28.8721L13.1401 28.8624L13.4662 28.3289L13.4722 28.319L13.4803 28.3105L13.911 27.8434L13.9126 27.8416L15.5895 26.1646L15.5971 26.1591L16.1278 25.7759L16.1326 25.7724L16.1377 25.7694L22.9484 21.8261L23.1396 21.3406L23.2371 20.5578L23.1396 19.7741L22.8481 19.0351L22.363 18.3804L21.6761 17.8464L12.8131 12.7037L12.0089 12.3726L11.2024 12.2774L10.4193 12.3938L10.0721 12.5412L9.92619 12.8811L9.80981 13.7455V21.8962H9.8105V24.0898L9.81074 24.0992V24.1176L9.81097 24.1264L9.8112 24.1358V24.1437L9.81166 24.1531L9.81304 24.2041L9.8105 24.2066V36.2936L9.80981 36.2996L9.74437 36.952L9.74299 36.9638L9.73953 36.9751L9.55149 37.5827L9.54803 37.5938L9.5425 37.6039L9.24477 38.154L9.23947 38.1639L9.2321 38.1726L8.83805 38.652L8.83436 38.6563L8.83021 38.6603L7.16183 40.3289L7.15768 40.3328L7.15353 40.3365L6.6756 40.7317L6.66684 40.7391L6.65693 40.7444L6.09834 41.0485L6.08705 41.052L5.48122 41.2407L5.4697 41.2442L5.45795 41.2453L4.80742 41.3112L4.80143 41.3117H4.04835L4.04259 41.3112L3.39182 41.2453L3.38007 41.2442L3.36855 41.2407L2.76272 41.052L2.75143 41.0485L2.19284 40.7444L2.18293 40.7391L2.17418 40.7317L1.69624 40.3365L1.68749 40.3291L1.68034 40.3206L1.28606 39.8413L1.27892 39.8325L1.27339 39.8226L0.975888 39.2725L0.970357 39.2624L0.966901 39.2513L0.778861 38.6437L0.775174 38.6324L0.774022 38.6206L0.708577 37.968L0.707886 37.9623V23.6339L0.735539 23.6063V9.33029L0.736691 9.32246L0.989484 7.4499L0.991788 7.434L0.99801 7.41902L1.70339 5.77783L1.70961 5.76354L1.71929 5.75133L2.79752 4.38735L2.80167 4.38205L4.48088 2.70283L4.48711 2.69799L5.85822 1.65779L5.86975 1.6488L7.46739 0.972688L7.48122 0.966927L7.49596 0.964623L9.21297 0.710217L9.22841 0.707912L9.24408 0.709526Z" fill="black"/>
<path fill-rule="evenodd" clip-rule="evenodd" d="M74.8645 11.7992L76.5451 11.9545L76.5566 11.9555L76.5677 11.9587L78.0911 12.4101L78.1029 12.4136L78.1134 12.4193L79.4592 13.1445L79.4701 13.1505L79.4797 13.1586L80.6269 14.1361L80.6363 14.144L81.5721 15.3616L81.5795 15.3711L81.5846 15.3819L82.2731 16.7979L82.2782 16.8081L82.2812 16.8189L82.531 17.7545L82.6033 17.5989L82.6084 17.5881L82.6153 17.5787L83.4705 16.414L83.4758 16.4067L83.4822 16.4004L85.1509 14.7318L85.1532 14.7293L85.1557 14.7272L86.2141 13.7847L86.2236 13.7762L86.2349 13.77L87.4779 13.0708L87.4889 13.0648L87.5009 13.0609L88.9105 12.626L88.922 12.6226L90.4915 12.4719L90.5024 12.4707L90.5134 12.4717L91.9915 12.6055L92.003 12.6067L92.0138 12.6099L93.3511 12.9996L93.3628 13.003L94.5526 13.6363L94.5637 13.6421L94.5731 13.6501L95.5764 14.4975L95.5861 14.5055L95.5937 14.5154L96.4044 15.5644L96.4118 15.5738L96.4171 15.5847L96.8918 16.5592V14.6173L98.6295 12.8795H100.668L100.926 15.0514L101.723 14.2548L101.725 14.2525L101.728 14.2504L102.31 13.7282L102.316 13.7227L102.323 13.7181L102.97 13.2842L102.977 13.2798L102.984 13.2761L103.688 12.9337L103.695 12.9302L103.703 12.9277L104.453 12.6795L104.46 12.677L104.468 12.6756L105.254 12.5244L105.262 12.523L106.083 12.4714L106.091 12.471L106.1 12.4717L107.553 12.5857L107.564 12.5866L107.574 12.5894L108.806 12.9229L108.819 12.9263L108.83 12.9325L109.85 13.472L109.862 13.4789L109.873 13.4886L110.688 14.2212L110.699 14.2306L110.707 14.2426L111.326 15.1547L111.333 15.165L111.338 15.177L111.769 16.2555L111.773 16.2652L111.775 16.2755L112.028 17.507L112.03 17.5153L112.03 17.5236L112.081 18.3629L112.435 17.5989L112.44 17.5881L112.447 17.5787L113.302 16.414L113.308 16.4067L113.314 16.4004L114.983 14.7318L114.985 14.7293L114.988 14.7272L116.046 13.7847L116.055 13.7762L116.067 13.77L117.31 13.0708L117.321 13.0648L117.333 13.0609L118.742 12.626L118.754 12.6226L120.323 12.4719L120.334 12.4707L120.345 12.4717L121.823 12.6055L121.835 12.6067L121.846 12.6099L123.183 12.9996L123.195 13.003L124.384 13.6363L124.396 13.6421L124.405 13.6501L125.408 14.4975L125.418 14.5055L125.426 14.5154L126.236 15.5644L126.244 15.5738L126.249 15.5847L126.724 16.5604V14.6173L128.462 12.8795H130.5L130.512 12.9839L130.7 14.6002L131.299 14.0011L131.301 13.9992L131.786 13.5586L131.793 13.5526L131.8 13.5476L132.363 13.1733L132.37 13.1697L132.99 12.8752L132.998 12.8717L133.005 12.8694L133.685 12.6539L133.692 12.6516L133.699 12.6502L134.432 12.5182L134.439 12.5168L134.446 12.5164L135.225 12.4714L135.232 12.471L135.24 12.4714L136.106 12.5293L136.114 12.53L136.122 12.5316L136.927 12.7009L136.936 12.7028L136.944 12.7058L137.682 12.9805L137.69 12.9837L137.698 12.9883L138.364 13.3618L138.372 13.3665L138.379 13.3724L138.966 13.8386L138.974 13.8446L138.98 13.8518L139.484 14.4046L139.49 14.4115L139.495 14.4193L139.91 15.0524L139.915 15.0602L139.919 15.0685L139.964 15.1687L141.286 13.8476L141.291 13.8425L141.297 13.8379L141.896 13.3715L141.904 13.3658L141.912 13.3612L142.594 12.9876L142.602 12.9832L142.61 12.9802L143.368 12.7056L143.376 12.7026L143.385 12.7009L144.212 12.5316L144.22 12.53L144.228 12.5293L145.117 12.4714L145.126 12.471L145.135 12.4717L146.317 12.5703L146.327 12.5712L146.338 12.574L147.401 12.8641L147.413 12.8673L147.424 12.8726L148.357 13.3453L148.368 13.351L148.378 13.3591L149.179 14.0138L149.187 14.0239L149.823 14.8353L149.831 14.8452L149.837 14.8565L150.306 15.8236L150.311 15.8342L150.314 15.8455L150.605 16.9599L150.607 16.9701L150.608 16.9804L150.708 18.2331L150.708 18.238V28.2476L148.97 29.9851H146.699V20.3562L146.633 19.4413L146.443 18.6412L146.135 17.9529L145.717 17.3807L145.195 16.9274L144.574 16.5963L143.856 16.3926L143.049 16.3235L142.167 16.4083L141.389 16.65L141.269 16.7182L141.052 17.1858L140.852 17.9679L140.783 18.8118V28.2476L139.046 29.9851H136.743V20.3218L136.676 19.4233L136.483 18.6339L136.171 17.9566L135.75 17.3939L135.226 16.9473L134.604 16.6223L133.892 16.423L133.092 16.3548L132.209 16.4382L131.426 16.6767L131.266 16.7657L131.07 17.1784L130.866 17.9474L130.796 18.7809V28.2476L129.058 29.9851H126.724V25.3023L126.453 25.8213L126.448 25.8305L126.441 25.8388L125.786 26.6847L125.782 26.6907L124.105 28.3672L124.103 28.3695L123.314 29.0682L123.306 29.0756L123.296 29.0813L122.378 29.63L122.369 29.6353L122.36 29.639L121.316 30.0344L121.307 30.0379L121.297 30.0397L120.131 30.2792L120.123 30.2808L120.115 30.2815L118.83 30.3619L118.821 30.3623L118.812 30.3616L117.212 30.2146L117.2 30.2135L117.189 30.2102L115.745 29.7821L115.733 29.7786L115.722 29.7726L114.452 29.0825L114.441 29.0763L114.431 29.068L113.352 28.1349L113.342 28.1266L113.335 28.1165L112.464 26.9597L112.457 26.95L112.452 26.9392L112.113 26.2213V28.2476L110.375 29.9851H108.041V21.045L107.968 19.8321L107.757 18.829L107.417 18.0202L106.957 17.3892L106.387 16.9212L105.708 16.6L104.926 16.4145L104.047 16.3546L102.966 16.4567L102.02 16.7519L101.723 16.9263L101.67 17.0051L101.282 17.9545L101.044 19.0415L100.963 20.2568V28.2476L99.2257 29.9851H96.8918V25.3033L96.6208 25.8213L96.616 25.8305L96.6095 25.8388L95.9544 26.6847L95.9498 26.6907L94.2733 28.3672L94.2708 28.3695L93.4822 29.0682L93.4739 29.0756L93.4645 29.0813L92.5464 29.63L92.5374 29.6353L92.5277 29.639L91.4838 30.0344L91.4751 30.0379L91.4656 30.0397L90.2996 30.2792L90.2915 30.2808L90.2832 30.2815L88.9985 30.3619L88.9895 30.3623L88.9806 30.3616L87.3801 30.2146L87.3686 30.2135L87.3573 30.2102L85.9132 29.7821L85.9012 29.7786L85.8904 29.7726L84.6199 29.0825L84.6086 29.0763L84.599 29.068L83.5198 28.1349L83.5104 28.1266L83.5028 28.1165L82.6326 26.9597L82.6255 26.95L82.6202 26.9392L81.977 25.5775L81.9722 25.5673L81.9694 25.5565L81.7503 24.7078L81.5777 25.0624L81.5726 25.0733L81.5652 25.0827L80.6331 26.2941L80.6282 26.3004L78.9511 27.9775L78.9474 27.9807L77.7964 28.962L77.7867 28.97L77.7759 28.976L76.4266 29.7047L76.416 29.7107L76.4043 29.7141L74.8785 30.1676L74.8672 30.1711L74.8557 30.172L73.1742 30.3282L73.1634 30.3294L73.1525 30.3282L71.48 30.1729L71.4685 30.172L71.4572 30.1685L69.9418 29.7173L69.9301 29.7139L69.9192 29.7081L68.57 28.9769L67.4196 27.9913L67.4104 27.9833L67.4028 27.9734L66.4801 26.7659L66.473 26.7562L66.4677 26.7454L66.1501 26.0881L67.0622 28.1508L67.0947 28.2248L67.0376 28.2822L65.3346 29.9851H61.3611L58.9487 24.3564H58.0965V28.2476L56.3587 29.9851H52.6712V21.0456L52.3392 21.4494L52.3355 21.4538L50.663 23.1265L50.6579 23.1314L50.6526 23.1357L49.8587 23.763L49.849 23.7706L49.838 23.7761L48.9031 24.2402L48.8927 24.2453L48.8814 24.2483L47.8189 24.5361L47.8085 24.5389L47.7979 24.5398L46.6203 24.6384L46.6155 24.6389H45.3979V28.2476L43.6601 29.9851H39.9726V13.7358L40.0072 13.7015L41.7103 11.9983H48.2839L48.289 11.9988L49.4665 12.0974L49.4771 12.0983L49.4875 12.1011L50.55 12.3889L50.5613 12.3919L50.5717 12.397L51.5064 12.8609L51.5174 12.8664L51.5271 12.874L52.3311 13.5093L52.3392 13.5192L52.6712 13.9227V13.7358L52.7058 13.7015L54.409 11.9983H60.6772L62.0674 12.0864L62.076 12.0868L62.0845 12.0887L63.3058 12.3481L63.316 12.3504L64.376 12.7804L64.3873 12.7851L64.3974 12.792L65.2819 13.387L65.2913 13.3971L65.9808 14.1403L65.9904 14.1506L65.9974 14.1629L66.4977 15.0567L66.5041 15.0685L66.5078 15.0812L66.8124 16.1202L66.8157 16.1315L66.8168 16.143L66.8534 16.5657L67.4137 15.8335L67.4185 15.8273L69.0956 14.15L69.0991 14.1472L70.2437 13.1657L70.2531 13.1577L70.2642 13.1517L71.6167 12.417L71.6284 12.4136L73.1465 11.9598L73.1576 11.9564L73.1694 11.9555L74.8426 11.7992L74.8536 11.7981L74.8645 11.7992ZM95.7926 22.6672H85.7078L85.8777 23.3164L86.33 24.2978L86.9264 25.1101L87.6654 25.7538L88.5404 26.2209L89.5497 26.5066L90.693 26.6041L91.5647 26.5555L92.3547 26.4096L93.0554 26.1702L93.2502 26.0649L93.3036 25.9713L93.5691 25.2482L95.2907 23.5266H96.8918V21.5681L95.7926 22.6672ZM125.624 22.6672H115.54L115.71 23.3164L116.162 24.2978L116.758 25.1101L117.497 25.7538L118.372 26.2209L119.382 26.5066L120.525 26.6041L121.397 26.5555L122.187 26.4096L122.887 26.1702L123.082 26.0649L123.135 25.9713L123.401 25.2482L125.123 23.5266H126.724V21.5676L125.624 22.6672ZM64.3854 22.0976L65.731 25.1403L65.3501 23.7061L65.3475 23.6959L65.3466 23.6856L65.2003 21.9188L65.1993 21.9089L65.2003 21.8992L65.256 21.227L64.3854 22.0976ZM72.2958 22.2852L72.3425 22.6315L72.47 22.9276L72.6654 23.1742L72.9138 23.3623L73.2014 23.4837L73.5125 23.5298L73.8328 23.4922L74.1563 23.3597L76.8216 21.8208L76.823 21.8109L76.7845 21.5015L76.6688 21.2097L76.4762 20.9507L76.1999 20.7371L72.4877 18.5938L72.2958 18.5152V22.2852ZM45.3979 19.6047H47.4937L48.077 19.5708L48.223 19.5413L48.2525 19.1528L48.2141 18.6442L48.1007 18.2122L47.9152 17.8529L47.6564 17.5605L47.3216 17.3319L46.9065 17.1666L46.4083 17.0662L45.8251 17.0323H45.3979V19.6047ZM58.0965 19.3657H60.6472L61.1823 19.3302L61.2724 19.3102L61.2987 19.0003L61.2611 18.5456L61.1498 18.1504L60.9694 17.8169L60.7201 17.5423L60.3995 17.3236L60.0075 17.1641L59.5416 17.0657L59.0012 17.0323H58.0965V19.3657ZM87.8302 16.314L86.9239 16.5624L86.319 16.8655L86.0475 17.3411L85.7083 18.276L85.5269 19.1924H93.1706L93.1264 19.0274L92.7294 18.2184L92.1924 17.5326L91.5248 16.9798L90.7367 16.5707L89.8366 16.3165L88.8338 16.229L87.8302 16.314ZM117.662 16.314L116.756 16.5624L116.151 16.8655L115.879 17.3411L115.54 18.276L115.359 19.1924H123.003L122.958 19.0274L122.561 18.2184L122.024 17.5326L121.357 16.9798L120.569 16.5707L119.669 16.3165L118.666 16.229L117.662 16.314Z" fill="black"/>
<path d="M9.24408 0.709526L11.0141 0.917843L11.0302 0.919687L11.0452 0.925909L12.7887 1.64258L12.7961 1.64557L12.803 1.64949L19.2438 5.37824L19.2279 5.52803L19.2277 5.5278L19.2212 5.59993L19.221 5.5997L19.2155 5.67229L19.2106 5.74303L19.2109 5.74326L19.2069 5.81585L19.2072 5.81608L19.2044 5.89097L19.2028 5.96448L19.2023 6.03246L19.2899 6.90145L19.4505 6.38504L19.454 6.37375L19.4595 6.36361L19.7639 5.80248L19.7694 5.79235L19.7766 5.78359L20.1801 5.29482L20.1838 5.29045L20.1877 5.2863L21.8563 3.61791L21.8602 3.61376L21.8646 3.61031L22.3536 3.20681L22.3624 3.19966L22.3723 3.19413L22.9334 2.88949L22.9438 2.88396L22.9548 2.8805L23.5749 2.68809L23.5862 2.68463L23.598 2.68348L24.2637 2.61619L24.2757 2.61504L24.2875 2.61619L24.9532 2.68348L24.9652 2.68463L24.9765 2.68809L25.5966 2.8805L25.6076 2.88396L25.6178 2.88949L26.1789 3.19413L26.189 3.19966L26.1978 3.20681L26.6868 3.61031L26.6956 3.61745L26.7027 3.62621L27.106 4.1152L27.1133 4.12396L27.1186 4.13387L27.4233 4.69499L27.4288 4.70536L27.4323 4.71642L27.6249 5.33653L27.6284 5.34783L27.6295 5.35958L27.6966 6.02532L27.6977 6.0373L27.6966 6.04906L27.6295 6.7148L27.6284 6.72678L27.6249 6.73807L27.4323 7.35819L27.4288 7.36925L27.4233 7.37939L27.1186 7.94051L27.1133 7.95065L27.106 7.9594L26.7027 8.4484L26.699 8.45278L25.0226 10.1292L25.0182 10.1329L24.5292 10.5362L24.5204 10.5436L24.5105 10.5489L23.9492 10.8535L23.939 10.859L23.928 10.8625L23.4113 11.0226L24.2794 11.1102L24.6935 11.0934L25.1051 11.0429L25.5033 10.9609L25.8895 10.8482L26.2635 10.7058L26.622 10.536L26.9649 10.3392L27.2931 10.1156L27.3546 10.0739L32.1821 12.8689L32.189 12.8731L32.1955 12.8779L33.686 14.0338L33.6989 14.0437L33.7085 14.0566L34.7732 15.49L34.7826 15.5024L34.7884 15.5169L35.4272 17.1351L35.4327 17.1491L35.6475 18.8747L35.6493 18.8892L35.6475 18.9037L35.4327 20.6292L35.4272 20.6431L34.7882 22.2614L34.7826 22.276L34.7732 22.2884L33.7085 23.7217L33.7032 23.7287L33.6973 23.7349L32.0233 25.4086L32.0176 25.4132L30.5269 26.5691L30.5204 26.5739L30.5137 26.5778L18.6106 33.4691L18.6103 33.4694L18.602 33.4742H18.6016L18.5933 33.479L18.5928 33.4793L18.5845 33.4841L18.5758 33.489L18.5755 33.4892L18.5672 33.4938L18.567 33.494L18.5585 33.4986L18.55 33.5035L18.5414 33.5081L18.1091 33.7586L18.1038 33.7616L18.0985 33.7641L17.5021 34.0333L17.4913 34.0383L17.4798 34.0409L16.8608 34.1814L16.8495 34.184L16.8378 34.1842L16.2142 34.2006L16.2027 34.201L16.1914 34.1992L15.5805 34.0964L15.5694 34.0943L15.5588 34.0904L14.9784 33.8731L14.9678 33.8692L14.9581 33.8632L14.426 33.5362L14.4161 33.5302L14.4076 33.5221L13.9416 33.0903L13.9329 33.0822L13.9259 33.0725L13.5439 32.5405L13.5404 32.5356L13.5374 32.5306L13.2443 32.0213L13.2413 32.016L13.239 32.0107L12.9705 31.4127L12.9657 31.4019L12.9629 31.3903L12.8231 30.7698L12.8203 30.7585L12.8201 30.7469L12.8037 30.1215L12.8035 30.1102L12.8053 30.0989L12.9079 29.4864L12.9097 29.4751L12.9136 29.4648L13.1302 28.8827L13.1341 28.8721L13.1401 28.8624L13.4662 28.3289L13.4722 28.319L13.4803 28.3105L13.911 27.8434L13.9126 27.8416L15.5895 26.1646L15.5971 26.1591L16.1278 25.7759L16.1326 25.7724L16.1377 25.7694L22.9484 21.8261L23.1396 21.3406L23.2371 20.5578L23.1396 19.7741L22.8481 19.0351L22.363 18.3804L21.6761 17.8464L12.8131 12.7037L12.0089 12.3726L11.2024 12.2774L10.4193 12.3938L10.0721 12.5412L9.92619 12.8811L9.80981 13.7455V21.8962H9.8105V24.0898L9.81074 24.0992V24.1176L9.81097 24.1264L9.8112 24.1358V24.1437L9.81166 24.1531L9.81304 24.2041L9.8105 24.2066V36.2936L9.80981 36.2996L9.74437 36.952L9.74299 36.9638L9.73953 36.9751L9.55149 37.5827L9.54803 37.5938L9.5425 37.6039L9.24477 38.154L9.23947 38.1639L9.2321 38.1726L8.83805 38.652L8.83436 38.6563L8.83021 38.6603L7.16183 40.3289L7.15768 40.3328L7.15353 40.3365L6.6756 40.7317L6.66684 40.7391L6.65693 40.7444L6.09834 41.0485L6.08705 41.052L5.48122 41.2407L5.4697 41.2442L5.45795 41.2453L4.80742 41.3112L4.80143 41.3117H4.04835L4.04259 41.3112L3.39182 41.2453L3.38007 41.2442L3.36855 41.2407L2.76272 41.052L2.75143 41.0485L2.19284 40.7444L2.18293 40.7391L2.17418 40.7317L1.69624 40.3365L1.68749 40.3291L1.68034 40.3206L1.28606 39.8413L1.27892 39.8325L1.27339 39.8226L0.975888 39.2725L0.970357 39.2624L0.966901 39.2513L0.778861 38.6437L0.775174 38.6324L0.774022 38.6206L0.708577 37.968L0.707886 37.9623V23.6339L0.735539 23.6063V9.33029L0.736691 9.32246L0.989484 7.4499L0.991788 7.434L0.99801 7.41902L1.70339 5.77783L1.70961 5.76354L1.71929 5.75133L2.79752 4.38735L2.80167 4.38205L4.48088 2.70283L4.48711 2.69799L5.85822 1.65779L5.86975 1.6488L7.46739 0.972688L7.48122 0.966927L7.49596 0.964623L9.21297 0.710217L9.22841 0.707912L9.24408 0.709526Z" stroke="black" stroke-width="1.41583" stroke-linejoin="round"/>
<path fill-rule="evenodd" clip-rule="evenodd" d="M74.8645 11.7992L76.5451 11.9545L76.5566 11.9555L76.5677 11.9587L78.0911 12.4101L78.1029 12.4136L78.1134 12.4193L79.4592 13.1445L79.4701 13.1505L79.4797 13.1586L80.6269 14.1361L80.6363 14.144L81.5721 15.3616L81.5795 15.3711L81.5846 15.3819L82.2731 16.7979L82.2782 16.8081L82.2812 16.8189L82.531 17.7545L82.6033 17.5989L82.6084 17.5881L82.6153 17.5787L83.4705 16.414L83.4758 16.4067L83.4822 16.4004L85.1509 14.7318L85.1532 14.7293L85.1557 14.7272L86.2141 13.7847L86.2236 13.7762L86.2349 13.77L87.4779 13.0708L87.4889 13.0648L87.5009 13.0609L88.9105 12.626L88.922 12.6226L90.4915 12.4719L90.5024 12.4707L90.5134 12.4717L91.9915 12.6055L92.003 12.6067L92.0138 12.6099L93.3511 12.9996L93.3628 13.003L94.5526 13.6363L94.5637 13.6421L94.5731 13.6501L95.5764 14.4975L95.5861 14.5055L95.5937 14.5154L96.4044 15.5644L96.4118 15.5738L96.4171 15.5847L96.8918 16.5592V14.6173L98.6295 12.8795H100.668L100.926 15.0514L101.723 14.2548L101.725 14.2525L101.728 14.2504L102.31 13.7282L102.316 13.7227L102.323 13.7181L102.97 13.2842L102.977 13.2798L102.984 13.2761L103.688 12.9337L103.695 12.9302L103.703 12.9277L104.453 12.6795L104.46 12.677L104.468 12.6756L105.254 12.5244L105.262 12.523L106.083 12.4714L106.091 12.471L106.1 12.4717L107.553 12.5857L107.564 12.5866L107.574 12.5894L108.806 12.9229L108.819 12.9263L108.83 12.9325L109.85 13.472L109.862 13.4789L109.873 13.4886L110.688 14.2212L110.699 14.2306L110.707 14.2426L111.326 15.1547L111.333 15.165L111.338 15.177L111.769 16.2555L111.773 16.2652L111.775 16.2755L112.028 17.507L112.03 17.5153L112.03 17.5236L112.081 18.3629L112.435 17.5989L112.44 17.5881L112.447 17.5787L113.302 16.414L113.308 16.4067L113.314 16.4004L114.983 14.7318L114.985 14.7293L114.988 14.7272L116.046 13.7847L116.055 13.7762L116.067 13.77L117.31 13.0708L117.321 13.0648L117.333 13.0609L118.742 12.626L118.754 12.6226L120.323 12.4719L120.334 12.4707L120.345 12.4717L121.823 12.6055L121.835 12.6067L121.846 12.6099L123.183 12.9996L123.195 13.003L124.384 13.6363L124.396 13.6421L124.405 13.6501L125.408 14.4975L125.418 14.5055L125.426 14.5154L126.236 15.5644L126.244 15.5738L126.249 15.5847L126.724 16.5604V14.6173L128.462 12.8795H130.5L130.512 12.9839L130.7 14.6002L131.299 14.0011L131.301 13.9992L131.786 13.5586L131.793 13.5526L131.8 13.5476L132.363 13.1733L132.37 13.1697L132.99 12.8752L132.998 12.8717L133.005 12.8694L133.685 12.6539L133.692 12.6516L133.699 12.6502L134.432 12.5182L134.439 12.5168L134.446 12.5164L135.225 12.4714L135.232 12.471L135.24 12.4714L136.106 12.5293L136.114 12.53L136.122 12.5316L136.927 12.7009L136.936 12.7028L136.944 12.7058L137.682 12.9805L137.69 12.9837L137.698 12.9883L138.364 13.3618L138.372 13.3665L138.379 13.3724L138.966 13.8386L138.974 13.8446L138.98 13.8518L139.484 14.4046L139.49 14.4115L139.495 14.4193L139.91 15.0524L139.915 15.0602L139.919 15.0685L139.964 15.1687L141.286 13.8476L141.291 13.8425L141.297 13.8379L141.896 13.3715L141.904 13.3658L141.912 13.3612L142.594 12.9876L142.602 12.9832L142.61 12.9802L143.368 12.7056L143.376 12.7026L143.385 12.7009L144.212 12.5316L144.22 12.53L144.228 12.5293L145.117 12.4714L145.126 12.471L145.135 12.4717L146.317 12.5703L146.327 12.5712L146.338 12.574L147.401 12.8641L147.413 12.8673L147.424 12.8726L148.357 13.3453L148.368 13.351L148.378 13.3591L149.179 14.0138L149.187 14.0239L149.823 14.8353L149.831 14.8452L149.837 14.8565L150.306 15.8236L150.311 15.8342L150.314 15.8455L150.605 16.9599L150.607 16.9701L150.608 16.9804L150.708 18.2331L150.708 18.238V28.2476L148.97 29.9851H146.699V20.3562L146.633 19.4413L146.443 18.6412L146.135 17.9529L145.717 17.3807L145.195 16.9274L144.574 16.5963L143.856 16.3926L143.049 16.3235L142.167 16.4083L141.389 16.65L141.269 16.7182L141.052 17.1858L140.852 17.9679L140.783 18.8118V28.2476L139.046 29.9851H136.743V20.3218L136.676 19.4233L136.483 18.6339L136.171 17.9566L135.75 17.3939L135.226 16.9473L134.604 16.6223L133.892 16.423L133.092 16.3548L132.209 16.4382L131.426 16.6767L131.266 16.7657L131.07 17.1784L130.866 17.9474L130.796 18.7809V28.2476L129.058 29.9851H126.724V25.3023L126.453 25.8213L126.448 25.8305L126.441 25.8388L125.786 26.6847L125.782 26.6907L124.105 28.3672L124.103 28.3695L123.314 29.0682L123.306 29.0756L123.296 29.0813L122.378 29.63L122.369 29.6353L122.36 29.639L121.316 30.0344L121.307 30.0379L121.297 30.0397L120.131 30.2792L120.123 30.2808L120.115 30.2815L118.83 30.3619L118.821 30.3623L118.812 30.3616L117.212 30.2146L117.2 30.2135L117.189 30.2102L115.745 29.7821L115.733 29.7786L115.722 29.7726L114.452 29.0825L114.441 29.0763L114.431 29.068L113.352 28.1349L113.342 28.1266L113.335 28.1165L112.464 26.9597L112.457 26.95L112.452 26.9392L112.113 26.2213V28.2476L110.375 29.9851H108.041V21.045L107.968 19.8321L107.757 18.829L107.417 18.0202L106.957 17.3892L106.387 16.9212L105.708 16.6L104.926 16.4145L104.047 16.3546L102.966 16.4567L102.02 16.7519L101.723 16.9263L101.67 17.0051L101.282 17.9545L101.044 19.0415L100.963 20.2568V28.2476L99.2257 29.9851H96.8918V25.3033L96.6208 25.8213L96.616 25.8305L96.6095 25.8388L95.9544 26.6847L95.9498 26.6907L94.2733 28.3672L94.2708 28.3695L93.4822 29.0682L93.4739 29.0756L93.4645 29.0813L92.5464 29.63L92.5374 29.6353L92.5277 29.639L91.4838 30.0344L91.4751 30.0379L91.4656 30.0397L90.2996 30.2792L90.2915 30.2808L90.2832 30.2815L88.9985 30.3619L88.9895 30.3623L88.9806 30.3616L87.3801 30.2146L87.3686 30.2135L87.3573 30.2102L85.9132 29.7821L85.9012 29.7786L85.8904 29.7726L84.6199 29.0825L84.6086 29.0763L84.599 29.068L83.5198 28.1349L83.5104 28.1266L83.5028 28.1165L82.6326 26.9597L82.6255 26.95L82.6202 26.9392L81.977 25.5775L81.9722 25.5673L81.9694 25.5565L81.7503 24.7078L81.5777 25.0624L81.5726 25.0733L81.5652 25.0827L80.6331 26.2941L80.6282 26.3004L78.9511 27.9775L78.9474 27.9807L77.7964 28.962L77.7867 28.97L77.7759 28.976L76.4266 29.7047L76.416 29.7107L76.4043 29.7141L74.8785 30.1676L74.8672 30.1711L74.8557 30.172L73.1742 30.3282L73.1634 30.3294L73.1525 30.3282L71.48 30.1729L71.4685 30.172L71.4572 30.1685L69.9418 29.7173L69.9301 29.7139L69.9192 29.7081L68.57 28.9769L67.4196 27.9913L67.4104 27.9833L67.4028 27.9734L66.4801 26.7659L66.473 26.7562L66.4677 26.7454L66.1501 26.0881L67.0622 28.1508L67.0947 28.2248L67.0376 28.2822L65.3346 29.9851H61.3611L58.9487 24.3564H58.0965V28.2476L56.3587 29.9851H52.6712V21.0456L52.3392 21.4494L52.3355 21.4538L50.663 23.1265L50.6579 23.1314L50.6526 23.1357L49.8587 23.763L49.849 23.7706L49.838 23.7761L48.9031 24.2402L48.8927 24.2453L48.8814 24.2483L47.8189 24.5361L47.8085 24.5389L47.7979 24.5398L46.6203 24.6384L46.6155 24.6389H45.3979V28.2476L43.6601 29.9851H39.9726V13.7358L40.0072 13.7015L41.7103 11.9983H48.2839L48.289 11.9988L49.4665 12.0974L49.4771 12.0983L49.4875 12.1011L50.55 12.3889L50.5613 12.3919L50.5717 12.397L51.5064 12.8609L51.5174 12.8664L51.5271 12.874L52.3311 13.5093L52.3392 13.5192L52.6712 13.9227V13.7358L52.7058 13.7015L54.409 11.9983H60.6772L62.0674 12.0864L62.076 12.0868L62.0845 12.0887L63.3058 12.3481L63.316 12.3504L64.376 12.7804L64.3873 12.7851L64.3974 12.792L65.2819 13.387L65.2913 13.3971L65.9808 14.1403L65.9904 14.1506L65.9974 14.1629L66.4977 15.0567L66.5041 15.0685L66.5078 15.0812L66.8124 16.1202L66.8157 16.1315L66.8168 16.143L66.8534 16.5657L67.4137 15.8335L67.4185 15.8273L69.0956 14.15L69.0991 14.1472L70.2437 13.1657L70.2531 13.1577L70.2642 13.1517L71.6167 12.417L71.6284 12.4136L73.1465 11.9598L73.1576 11.9564L73.1694 11.9555L74.8426 11.7992L74.8536 11.7981L74.8645 11.7992ZM95.7926 22.6672H85.7078L85.8777 23.3164L86.33 24.2978L86.9264 25.1101L87.6654 25.7538L88.5404 26.2209L89.5497 26.5066L90.693 26.6041L91.5647 26.5555L92.3547 26.4096L93.0554 26.1702L93.2502 26.0649L93.3036 25.9713L93.5691 25.2482L95.2907 23.5266H96.8918V21.5681L95.7926 22.6672ZM125.624 22.6672H115.54L115.71 23.3164L116.162 24.2978L116.758 25.1101L117.497 25.7538L118.372 26.2209L119.382 26.5066L120.525 26.6041L121.397 26.5555L122.187 26.4096L122.887 26.1702L123.082 26.0649L123.135 25.9713L123.401 25.2482L125.123 23.5266H126.724V21.5676L125.624 22.6672ZM64.3854 22.0976L65.731 25.1403L65.3501 23.7061L65.3475 23.6959L65.3466 23.6856L65.2003 21.9188L65.1993 21.9089L65.2003 21.8992L65.256 21.227L64.3854 22.0976ZM72.2958 22.2852L72.3425 22.6315L72.47 22.9276L72.6654 23.1742L72.9138 23.3623L73.2014 23.4837L73.5125 23.5298L73.8328 23.4922L74.1563 23.3597L76.8216 21.8208L76.823 21.8109L76.7845 21.5015L76.6688 21.2097L76.4762 20.9507L76.1999 20.7371L72.4877 18.5938L72.2958 18.5152V22.2852ZM45.3979 19.6047H47.4937L48.077 19.5708L48.223 19.5413L48.2525 19.1528L48.2141 18.6442L48.1007 18.2122L47.9152 17.8529L47.6564 17.5605L47.3216 17.3319L46.9065 17.1666L46.4083 17.0662L45.8251 17.0323H45.3979V19.6047ZM58.0965 19.3657H60.6472L61.1823 19.3302L61.2724 19.3102L61.2987 19.0003L61.2611 18.5456L61.1498 18.1504L60.9694 17.8169L60.7201 17.5423L60.3995 17.3236L60.0075 17.1641L59.5416 17.0657L59.0012 17.0323H58.0965V19.3657ZM87.8302 16.314L86.9239 16.5624L86.319 16.8655L86.0475 17.3411L85.7083 18.276L85.5269 19.1924H93.1706L93.1264 19.0274L92.7294 18.2184L92.1924 17.5326L91.5248 16.9798L90.7367 16.5707L89.8366 16.3165L88.8338 16.229L87.8302 16.314ZM117.662 16.314L116.756 16.5624L116.151 16.8655L115.879 17.3411L115.54 18.276L115.359 19.1924H123.003L122.958 19.0274L122.561 18.2184L122.024 17.5326L121.357 16.9798L120.569 16.5707L119.669 16.3165L118.666 16.229L117.662 16.314Z" stroke="black" stroke-width="1.41583" stroke-linejoin="round"/>
<path d="M130.677 28.1989H128.51V12.9978H130.394L130.645 15.1649C131.399 13.5631 133.095 12.5895 135.231 12.5895C137.618 12.5895 139.408 13.8458 140.13 15.8244C140.821 13.8458 142.674 12.5895 145.124 12.5895C148.422 12.5895 150.589 14.7252 150.589 18.2428V28.1989H148.485V18.6825C148.485 16.0757 147.04 14.5367 144.716 14.5367C142.172 14.5367 140.664 16.4526 140.664 18.8081V28.1989H138.528V18.6511C138.528 16.0757 137.052 14.5681 134.76 14.5681C132.216 14.5681 130.677 16.4526 130.677 18.7767V28.1989Z" fill="white"/>
<path d="M120.491 28.5758C116.031 28.5758 113.047 25.3722 113.047 20.5983C113.047 15.8558 116 12.5895 120.334 12.5895C124.448 12.5895 127.243 15.5104 127.243 19.8132V20.881H115.152C115.309 24.5871 117.256 26.7228 120.522 26.7228C123.003 26.7228 124.605 25.6549 125.171 23.6448H127.243C126.427 26.8484 124.071 28.5758 120.491 28.5758ZM120.334 14.4425C117.476 14.4425 115.591 16.327 115.214 19.3106H125.076C125.076 16.3898 123.192 14.4425 120.334 14.4425Z" fill="white"/>
<path d="M100.844 28.1989H98.6769V12.9978H100.561L100.875 15.636C101.88 13.6887 103.89 12.5895 106.089 12.5895C110.266 12.5895 111.994 15.0707 111.994 18.9023V28.1989H109.826V19.3735C109.826 15.8244 108.225 14.5681 105.712 14.5681C102.603 14.5681 100.844 16.8295 100.844 20.2529V28.1989Z" fill="white"/>
<path d="M90.6608 28.5758C86.201 28.5758 83.2173 25.3722 83.2173 20.5983C83.2173 15.8558 86.1696 12.5895 90.5038 12.5895C94.6181 12.5895 97.4134 15.5104 97.4134 19.8132V20.881H85.3216C85.4786 24.5871 87.4259 26.7228 90.6922 26.7228C93.1734 26.7228 94.7752 25.6549 95.3405 23.6448H97.4134C96.5968 26.8484 94.2412 28.5758 90.6608 28.5758ZM90.5038 14.4425C87.6457 14.4425 85.7613 16.327 85.3844 19.3106H95.2463C95.2463 16.3898 93.3618 14.4425 90.5038 14.4425Z" fill="white"/>
<path d="M57.9781 28.1983H54.4574V12.116H60.673C64.5849 12.116 66.8017 14.0067 66.8017 17.3319C66.8017 19.4182 65.9106 20.8961 64.1285 21.8089L66.9538 28.1983H63.1071L60.6947 22.5695H57.9781V28.1983ZM57.9781 15.2455V19.4834H60.6513C62.1943 19.4834 63.0854 18.701 63.0854 17.3319C63.0854 15.9844 62.2378 15.2455 60.673 15.2455H57.9781Z" fill="#DC341E"/>
<path d="M48.2779 22.852H45.2788V28.1983H41.7581V12.116H48.2779C51.5596 12.116 53.7546 14.2675 53.7546 17.484C53.7546 20.7005 51.5596 22.852 48.2779 22.852ZM47.4955 15.2455H45.2788V19.7225H47.4955C49.1907 19.7225 50.0383 18.9836 50.0383 17.484C50.0383 15.9844 49.1907 15.2455 47.4955 15.2455Z" fill="#DC341E"/>
<path d="M2.52257 7.66982C2.52261 2.40944 8.20144 -0.87845 12.7445 1.7517L19.118 5.44151C19.0957 5.63695 19.0841 5.83568 19.0841 6.0371C19.0841 8.9042 21.4084 11.2285 24.2755 11.2285C25.4305 11.2285 26.4971 10.8508 27.3595 10.2129L32.1235 12.9711C36.6665 15.6013 36.6665 22.1769 32.1235 24.8071L20.2203 31.6986C20.1981 31.7115 20.1756 31.724 20.1532 31.7363L19.7188 31.988C18.1748 32.882 16.2003 32.3514 15.3088 30.8031L15.0155 30.2939C14.124 28.7455 14.6533 26.7654 16.1974 25.8715L23.2284 21.8008L23.23 21.8036L23.411 21.6986C25.5629 20.4499 25.563 17.3283 23.411 16.0797L14.5341 10.9291C12.3822 9.68051 9.69211 11.2414 9.69205 13.7386V22.0143H9.69276V24.0814C9.69305 24.1065 9.69335 24.1317 9.6942 24.1566H9.69276V36.2878C9.69276 38.0757 8.24733 39.5253 6.46433 39.5253H5.72331C3.94032 39.5253 2.49487 38.0757 2.49487 36.2878V22.0143H2.52257V7.66982Z" fill="#DC341E"/>
<circle cx="24.2777" cy="6.03681" r="3.30359" fill="#DC341E"/>
<path d="M74.8536 11.9164C79.5261 11.9164 82.7421 15.3068 82.7423 20.2182C82.7423 25.1297 79.5046 28.5423 74.8322 28.5424C70.1814 28.5424 66.9866 25.152 66.9865 20.2406C66.9865 15.3291 70.2029 11.9164 74.8536 11.9164ZM74.3722 16.8197C73.4693 16.2985 72.3409 16.95 72.3409 17.9926V22.2924C72.3409 23.3348 73.4694 23.9864 74.3722 23.4652L78.0968 21.3148C78.9994 20.7935 78.9996 19.4903 78.0968 18.9691L74.3722 16.8197Z" fill="#DC341E"/>
</svg>
